# Made in Blockbench 5.1.6
mtllib idk XD.mtl

o Head
v 0.5625 2 0.125
v 0.5625 2 -0.375
v 0.5625 1.5 0.125
v 0.5625 1.5 -0.375
v 0.0625 2 -0.375
v 0.0625 2 0.125
v 0.0625 1.5 -0.375
v 0.0625 1.5 0.125
vt 0.125 0.875
vt 0.25 0.875
vt 0.25 0.75
vt 0.125 0.75
vt 0 0.875
vt 0.125 0.875
vt 0.125 0.75
vt 0 0.75
vt 0.375 0.875
vt 0.5 0.875
vt 0.5 0.75
vt 0.375 0.75
vt 0.25 0.875
vt 0.375 0.875
vt 0.375 0.75
vt 0.25 0.75
vt 0.25 0.875
vt 0.125 0.875
vt 0.125 1
vt 0.25 1
vt 0.375 1
vt 0.25 1
vt 0.25 0.875
vt 0.375 0.875
vn 0 0 -1
vn 1 0 0
vn 0 0 1
vn -1 0 0
vn 0 1 0
vn 0 -1 0
usemtl m_b53ee57c-3178-51c1-b009-63d7e2993075
f 4/4/1 7/3/1 5/2/1 2/1/1
f 3/8/2 4/7/2 2/6/2 1/5/2
f 8/12/3 3/11/3 1/10/3 6/9/3
f 7/16/4 8/15/4 6/14/4 5/13/4
f 6/20/5 1/19/5 2/18/5 5/17/5
f 7/24/6 4/23/6 3/22/6 8/21/6
o Hat Layer
v 0.59375 2.03125 0.15625
v 0.59375 2.03125 -0.40625
v 0.59375 1.46875 0.15625
v 0.59375 1.46875 -0.40625
v 0.03125 2.03125 -0.40625
v 0.03125 2.03125 0.15625
v 0.03125 1.46875 -0.40625
v 0.03125 1.46875 0.15625
vt 0.625 0.875
vt 0.75 0.875
vt 0.75 0.75
vt 0.625 0.75
vt 0.5 0.875
vt 0.625 0.875
vt 0.625 0.75
vt 0.5 0.75
vt 0.875 0.875
vt 1 0.875
vt 1 0.75
vt 0.875 0.75
vt 0.75 0.875
vt 0.875 0.875
vt 0.875 0.75
vt 0.75 0.75
vt 0.75 0.875
vt 0.625 0.875
vt 0.625 1
vt 0.75 1
vt 0.875 1
vt 0.75 1
vt 0.75 0.875
vt 0.875 0.875
vn 0 0 -1
vn 1 0 0
vn 0 0 1
vn -1 0 0
vn 0 1 0
vn 0 -1 0
usemtl m_b53ee57c-3178-51c1-b009-63d7e2993075
f 12/28/7 15/27/7 13/26/7 10/25/7
f 11/32/8 12/31/8 10/30/8 9/29/8
f 16/36/9 11/35/9 9/34/9 14/33/9
f 15/40/10 16/39/10 14/38/10 13/37/10
f 14/44/11 9/43/11 10/42/11 13/41/11
f 15/48/12 12/47/12 11/46/12 16/45/12
o Body
v 0.4615917542729753 1.5478354290456362 0.05125464887969544
v 0.5213711588715588 1.4521645709543638 -0.1718451263284353
v 0.3873074338670097 0.8549257796621712 0.32848750684048506
v 0.4470868384655933 0.7592549215708988 0.10538773163235432
v 0.038408245727024656 1.4521645709543638 -0.30125464887969544
v -0.021371158871558868 1.5478354290456362 -0.0781548736715647
v -0.03587607467894091 0.7592549215708988 -0.024021790918905828
v -0.09565547927752446 0.8549257796621712 0.1990779842892249
vt 0.3125 0.6875
vt 0.4375 0.6875
vt 0.4375 0.5
vt 0.3125 0.5
vt 0.25 0.6875
vt 0.3125 0.6875
vt 0.3125 0.5
vt 0.25 0.5
vt 0.5 0.6875
vt 0.625 0.6875
vt 0.625 0.5
vt 0.5 0.5
vt 0.4375 0.6875
vt 0.5 0.6875
vt 0.5 0.5
vt 0.4375 0.5
vt 0.4375 0.6875
vt 0.3125 0.6875
vt 0.3125 0.75
vt 0.4375 0.75
vt 0.5625 0.75
vt 0.4375 0.75
vt 0.4375 0.6875
vt 0.5625 0.6875
vn 0.23911761839433415 -0.3826834323650898 -0.8923991008325229
vn 0.9659258262890684 0 0.2588190451025203
vn -0.23911761839433415 0.3826834323650898 0.8923991008325229
vn -0.9659258262890684 0 -0.2588190451025203
vn 0.09904576054128747 0.9238795325112868 -0.36964381061438617
vn -0.09904576054128747 -0.9238795325112868 0.36964381061438617
usemtl m_b53ee57c-3178-51c1-b009-63d7e2993075
f 20/52/13 23/51/13 21/50/13 18/49/13
f 19/56/14 20/55/14 18/54/14 17/53/14
f 24/60/15 19/59/15 17/58/15 22/57/15
f 23/64/16 24/63/16 22/62/16 21/61/16
f 22/68/17 17/67/17 18/66/17 21/65/17
f 23/72/18 20/71/18 19/70/18 24/69/18
o Body Layer
v 0.4744957225297882 1.5682504753718296 0.06346674786908074
v 0.5417475527031946 1.4606207600191483 -0.18752049924006642
v 0.39711622210690734 0.8464695905973869 0.35225097491156987
v 0.46436805228031375 0.7388398752447054 0.10126372780242276
v 0.028599457487127028 1.4606207600191483 -0.3250181169507803
v -0.03865237268627944 1.5682504753718296 -0.0740308698416331
v -0.0487800429357538 0.7388398752447054 -0.036233889908291184
v -0.11603187310916027 0.8464695905973869 0.21475335720085592
vt 0.3125 0.4375
vt 0.4375 0.4375
vt 0.4375 0.25
vt 0.3125 0.25
vt 0.25 0.4375
vt 0.3125 0.4375
vt 0.3125 0.25
vt 0.25 0.25
vt 0.5 0.4375
vt 0.625 0.4375
vt 0.625 0.25
vt 0.5 0.25
vt 0.4375 0.4375
vt 0.5 0.4375
vt 0.5 0.25
vt 0.4375 0.25
vt 0.4375 0.4375
vt 0.3125 0.4375
vt 0.3125 0.5
vt 0.4375 0.5
vt 0.5625 0.5
vt 0.4375 0.5
vt 0.4375 0.4375
vt 0.5625 0.4375
vn 0.23911761839433415 -0.3826834323650898 -0.8923991008325229
vn 0.9659258262890684 0 0.2588190451025203
vn -0.23911761839433415 0.3826834323650898 0.8923991008325229
vn -0.9659258262890684 0 -0.2588190451025203
vn 0.09904576054128747 0.9238795325112868 -0.36964381061438617
vn -0.09904576054128747 -0.9238795325112868 0.36964381061438617
usemtl m_b53ee57c-3178-51c1-b009-63d7e2993075
f 28/76/19 31/75/19 29/74/19 26/73/19
f 27/80/20 28/79/20 26/78/20 25/77/20
f 32/84/21 27/83/21 25/82/21 30/81/21
f 31/88/22 32/87/22 30/86/22 29/85/22
f 30/92/23 25/91/23 26/90/23 29/89/23
f 31/96/24 28/95/24 27/94/24 32/93/24
o Right Arm
v 0.6803091528195633 1.152837051673399 -0.0686894512300863
v 0.5827797844502421 1.2888522286184194 0.11701971371902464
v 1.094689904682006 1.740608848115272 -0.281557738660155
v 0.9971605363126849 1.8766240250602924 -0.09584857371104405
v 0.3986358814120512 1.363776753659013 -0.034563064066919114
v 0.49616524978137244 1.2277615767139927 -0.22027222901603005
v 0.8130166332744939 1.951548550100886 -0.2474313514969877
v 0.9105460016438152 1.8155333731558656 -0.43314051644609863
vt 0.6875 0.6875
vt 0.75 0.6875
vt 0.75 0.5
vt 0.6875 0.5
vt 0.625 0.6875
vt 0.6875 0.6875
vt 0.6875 0.5
vt 0.625 0.5
vt 0.8125 0.6875
vt 0.875 0.6875
vt 0.875 0.5
vt 0.8125 0.5
vt 0.75 0.6875
vt 0.8125 0.6875
vt 0.8125 0.5
vt 0.75 0.5
vt 0.75 0.6875
vt 0.6875 0.6875
vt 0.6875 0.75
vt 0.75 0.75
vt 0.8125 0.75
vt 0.75 0.75
vt 0.75 0.6875
vt 0.8125 0.6875
vn -0.39011747347728465 0.5440607077800813 0.7428366597964435
vn 0.7365756121527638 -0.2996981001623747 0.6063311111437748
vn 0.39011747347728465 -0.5440607077800813 -0.7428366597964435
vn -0.7365756121527638 0.2996981001623747 -0.6063311111437748
vn -0.5525076691499236 -0.7836957285891639 0.2838243832400915
vn 0.5525076691499236 0.7836957285891639 -0.2838243832400915
usemtl m_b53ee57c-3178-51c1-b009-63d7e2993075
f 36/100/25 39/99/25 37/98/25 34/97/25
f 35/104/26 36/103/26 34/102/26 33/101/26
f 40/108/27 35/107/27 33/106/27 38/105/27
f 39/112/28 40/111/28 38/110/28 37/109/28
f 38/116/29 33/115/29 34/114/29 37/113/29
f 39/120/30 36/119/30 35/118/30 40/117/30
o Right Arm Layer
v 0.6892807999520653 1.1274080745400925 -0.0663875944396578
v 0.5795602605365789 1.2804251486032403 0.14253521612809184
v 1.120927416475443 1.7396703625003769 -0.2881253938459793
v 1.0112068770599567 1.8926874365635247 -0.0792025832782296
v 0.37239836961861417 1.3647152392739081 -0.02799540888109464
v 0.4821189090341005 1.2116981652107603 -0.23691821944884445
v 0.8040449861419919 1.9769775272341925 -0.2497332082874162
v 0.9137655255574783 1.8239604531710447 -0.45865601885516594
vt 0.6875 0.4375
vt 0.75 0.4375
vt 0.75 0.25
vt 0.6875 0.25
vt 0.625 0.4375
vt 0.6875 0.4375
vt 0.6875 0.25
vt 0.625 0.25
vt 0.8125 0.4375
vt 0.875 0.4375
vt 0.875 0.25
vt 0.8125 0.25
vt 0.75 0.4375
vt 0.8125 0.4375
vt 0.8125 0.25
vt 0.75 0.25
vt 0.75 0.4375
vt 0.6875 0.4375
vt 0.6875 0.5
vt 0.75 0.5
vt 0.8125 0.5
vt 0.75 0.5
vt 0.75 0.4375
vt 0.8125 0.4375
vn -0.39011747347728465 0.5440607077800813 0.7428366597964435
vn 0.7365756121527638 -0.2996981001623747 0.6063311111437748
vn 0.39011747347728465 -0.5440607077800813 -0.7428366597964435
vn -0.7365756121527638 0.2996981001623747 -0.6063311111437748
vn -0.5525076691499236 -0.7836957285891639 0.2838243832400915
vn 0.5525076691499236 0.7836957285891639 -0.2838243832400915
usemtl m_b53ee57c-3178-51c1-b009-63d7e2993075
f 44/124/31 47/123/31 45/122/31 42/121/31
f 43/128/32 44/127/32 42/126/32 41/125/32
f 48/132/33 43/131/33 41/130/33 46/129/33
f 47/136/34 48/135/34 46/134/34 45/133/34
f 46/140/35 41/139/35 42/138/35 45/137/35
f 47/144/36 44/143/36 43/142/36 48/141/36
o Left Arm
v -0.05256758608763157 1.1965774578831914 -0.0682285844949323
v -0.08491996672544722 1.4100320760466452 0.05782874155857409
v 0.30965459877076873 1.5703665186866302 -0.6082071274205655
v 0.2773022181329531 1.783821136850084 -0.482149801367059
v -0.3014263176715569 1.4476203009846795 -0.06138587728495415
v -0.26907393703374105 1.2341656828212257 -0.18744320333846065
v 0.06079586718684338 1.8214093617881182 -0.6013644202105873
v 0.09314824782465903 1.6079547436246644 -0.7274217462640938
vt 0.5625 0.1875
vt 0.625 0.1875
vt 0.625 0
vt 0.5625 0
vt 0.5 0.1875
vt 0.5625 0.1875
vt 0.5625 0
vt 0.5 0
vt 0.6875 0.1875
vt 0.75 0.1875
vt 0.75 0
vt 0.6875 0
vt 0.625 0.1875
vt 0.6875 0.1875
vt 0.6875 0
vt 0.625 0
vt 0.625 0.1875
vt 0.5625 0.1875
vt 0.5625 0.25
vt 0.625 0.25
vt 0.6875 0.25
vt 0.625 0.25
vt 0.625 0.1875
vt 0.6875 0.1875
vn -0.12940952255126267 0.8538184726538152 0.5042293042140257
vn 0.8660254037844386 -0.15035289975213686 0.4768584753741135
vn 0.12940952255126267 -0.8538184726538152 -0.5042293042140257
vn -0.8660254037844386 0.15035289975213686 -0.4768584753741135
vn -0.48296291314453366 -0.49838541440458534 0.719971390567511
vn 0.48296291314453366 0.49838541440458534 -0.719971390567511
usemtl m_b53ee57c-3178-51c1-b009-63d7e2993075
f 52/148/37 55/147/37 53/146/37 50/145/37
f 51/152/38 52/151/38 50/150/38 49/149/38
f 56/156/39 51/155/39 49/154/39 54/153/39
f 55/160/40 56/159/40 54/158/40 53/157/40
f 54/164/41 49/163/41 50/162/41 53/161/41
f 55/168/42 52/167/42 51/166/42 56/165/42
o Left Arm Layer
v -0.04456021088151951 1.1731000080892766 -0.05740670071793852
v -0.08095663909906214 1.413236453523162 0.08440779109225627
v 0.33275456501264744 1.5624636130928589 -0.6198843495988065
v 0.2963581367951048 1.8026000585267445 -0.47806985778861166
v -0.3245262839134354 1.4555232065784507 -0.049708655106713295
v -0.2881298556958928 1.2153867611445652 -0.19152314691690797
v 0.05278849198073143 1.844886811582033 -0.612186303987581
v 0.08918492019827406 1.6047503661481475 -0.7540007957977759
vt 0.8125 0.1875
vt 0.875 0.1875
vt 0.875 0
vt 0.8125 0
vt 0.75 0.1875
vt 0.8125 0.1875
vt 0.8125 0
vt 0.75 0
vt 0.9375 0.1875
vt 1 0.1875
vt 1 0
vt 0.9375 0
vt 0.875 0.1875
vt 0.9375 0.1875
vt 0.9375 0
vt 0.875 0
vt 0.875 0.1875
vt 0.8125 0.1875
vt 0.8125 0.25
vt 0.875 0.25
vt 0.9375 0.25
vt 0.875 0.25
vt 0.875 0.1875
vt 0.9375 0.1875
vn -0.12940952255126267 0.8538184726538152 0.5042293042140257
vn 0.8660254037844386 -0.15035289975213686 0.4768584753741135
vn 0.12940952255126267 -0.8538184726538152 -0.5042293042140257
vn -0.8660254037844386 0.15035289975213686 -0.4768584753741135
vn -0.48296291314453366 -0.49838541440458534 0.719971390567511
vn 0.48296291314453366 0.49838541440458534 -0.719971390567511
usemtl m_b53ee57c-3178-51c1-b009-63d7e2993075
f 60/172/43 63/171/43 61/170/43 58/169/43
f 59/176/44 60/175/44 58/174/44 57/173/44
f 64/180/45 59/179/45 57/178/45 62/177/45
f 63/184/46 64/183/46 62/182/46 61/181/46
f 62/188/47 57/187/47 58/186/47 61/185/47
f 63/192/48 60/191/48 59/190/48 64/189/48
o Right Leg
v 0.4951950365603365 0.7136079478869648 0.16272494386672487
v 0.5956118188080067 0.6645904925951789 -0.06091261764685843
v 0.4438915599375914 -0.021771907355752317 0.3008713219937674
v 0.5443083421852617 -0.07078936264753818 0.07723376048018414
v 0.3673049634396633 0.6613920521130353 -0.16272494386672484
v 0.266888181191993 0.7104095074048212 0.06091261764685843
v 0.31600148681691825 -0.07398780312968181 -0.024578565739682284
v 0.21558470456924794 -0.024970347837895944 0.199058995773901
vt 0.0625 0.6875
vt 0.125 0.6875
vt 0.125 0.5
vt 0.0625 0.5
vt 0 0.6875
vt 0.0625 0.6875
vt 0.0625 0.5
vt 0 0.5
vt 0.1875 0.6875
vt 0.25 0.6875
vt 0.25 0.5
vt 0.1875 0.5
vt 0.125 0.6875
vt 0.1875 0.6875
vt 0.1875 0.5
vt 0.125 0.5
vt 0.125 0.6875
vt 0.0625 0.6875
vt 0.0625 0.75
vt 0.125 0.75
vt 0.1875 0.75
vt 0.125 0.75
vt 0.125 0.6875
vt 0.1875 0.6875
vn 0.4016671289906812 -0.19606982116714344 -0.8945502460543332
vn 0.9132274214733737 0.012793761928574544 0.4072493048794657
vn -0.4016671289906812 0.19606982116714344 0.8945502460543332
vn -0.9132274214733737 -0.012793761928574544 -0.4072493048794657
vn 0.06840463549699342 0.9805064736569563 -0.18419517083605674
vn -0.06840463549699342 -0.9805064736569563 0.18419517083605674
usemtl m_b53ee57c-3178-51c1-b009-63d7e2993075
f 68/196/49 71/195/49 69/194/49 66/193/49
f 67/200/50 68/199/50 66/198/50 65/197/50
f 72/204/51 67/203/51 65/202/51 70/201/51
f 71/208/52 72/207/52 70/206/52 69/205/52
f 70/212/53 65/211/53 66/210/53 69/209/53
f 71/216/54 68/215/54 67/214/54 72/213/54
o Right Leg Layer
v 0.504256988560019 0.7321918550237254 0.18018751230575208
v 0.617225868588648 0.6770472178204663 -0.07140474439702912
v 0.4508158670779929 -0.03382882752077167 0.32408998952142143
v 0.563784747106622 -0.08897346472403075 0.07249773281864022
v 0.36038065629926175 0.6734489722780547 -0.18594361139437884
v 0.24741177627063266 0.7285936094813138 0.06564864530840234
v 0.3069395348172356 -0.09257171026644234 -0.0420411341787095
v 0.19397065478860656 -0.03742707306318325 0.20955112252407168
vt 0.0625 0.4375
vt 0.125 0.4375
vt 0.125 0.25
vt 0.0625 0.25
vt 0 0.4375
vt 0.0625 0.4375
vt 0.0625 0.25
vt 0 0.25
vt 0.1875 0.4375
vt 0.25 0.4375
vt 0.25 0.25
vt 0.1875 0.25
vt 0.125 0.4375
vt 0.1875 0.4375
vt 0.1875 0.25
vt 0.125 0.25
vt 0.125 0.4375
vt 0.0625 0.4375
vt 0.0625 0.5
vt 0.125 0.5
vt 0.1875 0.5
vt 0.125 0.5
vt 0.125 0.4375
vt 0.1875 0.4375
vn 0.4016671289906812 -0.19606982116714344 -0.8945502460543332
vn 0.9132274214733737 0.012793761928574544 0.4072493048794657
vn -0.4016671289906812 0.19606982116714344 0.8945502460543332
vn -0.9132274214733737 -0.012793761928574544 -0.4072493048794657
vn 0.06840463549699342 0.9805064736569563 -0.18419517083605674
vn -0.06840463549699342 -0.9805064736569563 0.18419517083605674
usemtl m_b53ee57c-3178-51c1-b009-63d7e2993075
f 76/220/55 79/219/55 77/218/55 74/217/55
f 75/224/56 76/223/56 74/222/56 73/221/56
f 80/228/57 75/227/57 73/226/57 78/225/57
f 79/232/58 80/231/58 78/230/58 77/229/58
f 78/236/59 73/235/59 74/234/59 77/233/59
f 79/240/60 76/239/60 75/238/60 80/237/60
o Left Leg
v -0.020700557220938692 0.7587325948345486 0.45933340409515544
v 0.022340091137762558 0.6945193389162104 0.22158530136197135
v -0.1971603916370531 0.04759162104882779 0.6194597362236787
v -0.15411974327835187 -0.01662163486951039 0.38171163349049464
v -0.21679944277906116 0.7412674051654513 0.16566659590484456
v -0.2598400911377624 0.8054806610837895 0.4034146986380286
v -0.3932592771951756 0.03012643137973048 0.3257929280333678
v -0.43629992555387687 0.09433968729806866 0.5635410307665518
vt 0.3125 0.1875
vt 0.375 0.1875
vt 0.375 0
vt 0.3125 0
vt 0.25 0.1875
vt 0.3125 0.1875
vt 0.3125 0
vt 0.25 0
vt 0.4375 0.1875
vt 0.5 0.1875
vt 0.5 0
vt 0.4375 0
vt 0.375 0.1875
vt 0.4375 0.1875
vt 0.4375 0
vt 0.375 0
vt 0.375 0.1875
vt 0.3125 0.1875
vt 0.3125 0.25
vt 0.375 0.25
vt 0.4375 0.25
vt 0.375 0.25
vt 0.375 0.1875
vt 0.4375 0.1875
vn 0.17216259343480486 -0.2568530236733527 -0.9509924109327362
vn 0.9565581356672949 -0.18699226499696348 0.22367482182850726
vn -0.17216259343480486 0.2568530236733527 0.9509924109327362
vn -0.9565581356672949 0.18699226499696348 -0.22367482182850726
vn 0.23527977922148596 0.948187965047628 -0.21350177617136437
vn -0.23527977922148596 -0.948187965047628 0.21350177617136437
usemtl m_b53ee57c-3178-51c1-b009-63d7e2993075
f 84/244/61 87/243/61 85/242/61 82/241/61
f 83/248/62 84/247/62 82/246/62 81/245/62
f 88/252/63 83/251/63 81/250/63 86/249/63
f 87/256/64 88/255/64 86/254/64 85/253/64
f 86/260/65 81/259/65 82/258/65 85/257/65
f 87/264/66 84/263/66 83/262/66 88/261/66
o Left Leg Layer
v -0.004768130323220293 0.7746396061427364 0.4743516143543723
v 0.04365259908031857 0.702399693234606 0.2068849987795402
v -0.18858045784000615 0.03386775844927718 0.6411498769882507
v -0.1401597284364673 -0.038372154458853266 0.37368326141341857
v -0.2253793765761081 0.754991267765002 0.14397645514027257
v -0.273800105979647 0.8272311806731324 0.41144307071510466
v -0.40919170409289396 0.014219420071542713 0.31077471777415094
v -0.4576124334964329 0.08645933297967316 0.5782413333489831
vt 0.0625 0.1875
vt 0.125 0.1875
vt 0.125 0
vt 0.0625 0
vt 0 0.1875
vt 0.0625 0.1875
vt 0.0625 0
vt 0 0
vt 0.1875 0.1875
vt 0.25 0.1875
vt 0.25 0
vt 0.1875 0
vt 0.125 0.1875
vt 0.1875 0.1875
vt 0.1875 0
vt 0.125 0
vt 0.125 0.1875
vt 0.0625 0.1875
vt 0.0625 0.25
vt 0.125 0.25
vt 0.1875 0.25
vt 0.125 0.25
vt 0.125 0.1875
vt 0.1875 0.1875
vn 0.17216259343480486 -0.2568530236733527 -0.9509924109327362
vn 0.9565581356672949 -0.18699226499696348 0.22367482182850726
vn -0.17216259343480486 0.2568530236733527 0.9509924109327362
vn -0.9565581356672949 0.18699226499696348 -0.22367482182850726
vn 0.23527977922148596 0.948187965047628 -0.21350177617136437
vn -0.23527977922148596 -0.948187965047628 0.21350177617136437
usemtl m_b53ee57c-3178-51c1-b009-63d7e2993075
f 92/268/67 95/267/67 93/266/67 90/265/67
f 91/272/68 92/271/68 90/270/68 89/269/68
f 96/276/69 91/275/69 89/274/69 94/273/69
f 95/280/70 96/279/70 94/278/70 93/277/70
f 94/284/71 89/283/71 90/282/71 93/281/71
f 95/288/72 92/287/72 91/286/72 96/285/72
o Head
v -0.3851028599143076 1.9736507939165362 -3.1316671105455964
v -0.4713597052928462 2.016855850559728 -3.622271920658381
v -0.39820697856646925 1.4755534448706635 -3.173228065152343
v -0.48446382394500787 1.5187585015138554 -3.6638328752651277
v -0.9636889027813691 2.022543904175209 -3.53521098024091
v -0.8774320574028305 1.9793388475320173 -3.0446061701281253
v -0.9767930214335308 1.5244465551293365 -3.5767719348476565
v -0.8905361760549921 1.4812414984861446 -3.086167124734872
vt 0.125 0.875
vt 0.25 0.875
vt 0.25 0.75
vt 0.125 0.75
vt 0 0.875
vt 0.125 0.875
vt 0.125 0.75
vt 0 0.75
vt 0.375 0.875
vt 0.5 0.875
vt 0.5 0.75
vt 0.375 0.75
vt 0.25 0.875
vt 0.375 0.875
vt 0.375 0.75
vt 0.25 0.75
vt 0.25 0.875
vt 0.125 0.875
vt 0.125 1
vt 0.25 1
vt 0.375 1
vt 0.25 1
vt 0.25 0.875
vt 0.375 0.875
vn -0.17251369075707731 0.08641011328638351 -0.9812096202255695
vn 0.9846583949770458 -0.011376107230962206 -0.1741218808349423
vn 0.17251369075707731 -0.08641011328638351 0.9812096202255695
vn -0.9846583949770458 0.011376107230962206 0.1741218808349423
vn 0.02620823730432332 0.9961946980917455 0.08312190921349351
vn -0.02620823730432332 -0.9961946980917455 -0.08312190921349351
usemtl m_827fe515-5951-9d89-edaf-f41a701d2e01
f 100/292/73 103/291/73 101/290/73 98/289/73
f 99/296/74 100/295/74 98/294/74 97/293/74
f 104/300/75 99/299/75 97/298/75 102/297/75
f 103/304/76 104/303/76 102/302/76 101/301/76
f 102/308/77 97/307/77 98/306/77 101/305/77
f 103/312/78 100/311/78 99/310/78 104/309/78
o Hat Layer
v -0.34812222481935623 2.0017260588407364 -3.103848059026718
v -0.44516117587021214 2.050331747564327 -3.6557784704036003
v -0.36286435830303804 1.4413665411641292 -3.150604132959308
v -0.45990330935389395 1.48997222988772 -3.7025345443361903
v -0.9990315230448004 2.056730807881743 -3.5578349124339455
v -0.9019925719939443 2.0081251191581524 -3.0059045010570626
v -1.0137736565284823 1.4963712902051365 -3.6045909863665355
v -0.9167347054776263 1.4477656014815456 -3.0526605749896527
vt 0.625 0.875
vt 0.75 0.875
vt 0.75 0.75
vt 0.625 0.75
vt 0.5 0.875
vt 0.625 0.875
vt 0.625 0.75
vt 0.5 0.75
vt 0.875 0.875
vt 1 0.875
vt 1 0.75
vt 0.875 0.75
vt 0.75 0.875
vt 0.875 0.875
vt 0.875 0.75
vt 0.75 0.75
vt 0.75 0.875
vt 0.625 0.875
vt 0.625 1
vt 0.75 1
vt 0.875 1
vt 0.75 1
vt 0.75 0.875
vt 0.875 0.875
vn -0.17251369075707731 0.08641011328638351 -0.9812096202255695
vn 0.9846583949770458 -0.011376107230962206 -0.1741218808349423
vn 0.17251369075707731 -0.08641011328638351 0.9812096202255695
vn -0.9846583949770458 0.011376107230962206 0.1741218808349423
vn 0.02620823730432332 0.9961946980917455 0.08312190921349351
vn -0.02620823730432332 -0.9961946980917455 -0.08312190921349351
usemtl m_827fe515-5951-9d89-edaf-f41a701d2e01
f 108/316/79 111/315/79 109/314/79 106/313/79
f 107/320/80 108/319/80 106/318/80 105/317/80
f 112/324/81 107/323/81 105/322/81 110/321/81
f 111/328/82 112/327/82 110/326/82 109/325/82
f 110/332/83 105/331/83 106/330/83 109/329/83
f 111/336/84 108/335/84 107/334/84 112/333/84
o Body
v -0.41148253737490914 1.5 -3.33096183103254
v -0.4866589872509774 1.5 -3.5693910687195967
v -0.41148253737490914 0.75 -3.33096183103254
v -0.4866589872509774 0.75 -3.5693910687195967
v -0.9635174626250909 1.5 -3.41903816896746
v -0.8883410127490226 1.5 -3.1806089312804033
v -0.9635174626250909 0.75 -3.41903816896746
v -0.8883410127490226 0.75 -3.1806089312804033
vt 0.3125 0.6875
vt 0.4375 0.6875
vt 0.4375 0.5
vt 0.3125 0.5
vt 0.25 0.6875
vt 0.3125 0.6875
vt 0.3125 0.5
vt 0.25 0.5
vt 0.5 0.6875
vt 0.625 0.6875
vt 0.625 0.5
vt 0.5 0.5
vt 0.4375 0.6875
vt 0.5 0.6875
vt 0.5 0.5
vt 0.4375 0.5
vt 0.4375 0.6875
vt 0.3125 0.6875
vt 0.3125 0.75
vt 0.4375 0.75
vt 0.5625 0.75
vt 0.4375 0.75
vt 0.4375 0.6875
vt 0.5625 0.6875
vn -0.30070579950427306 0 -0.9537169507482269
vn 0.9537169507482269 0 -0.30070579950427306
vn 0.30070579950427306 0 0.9537169507482269
vn -0.9537169507482269 0 0.30070579950427306
vn 0 1 0
vn 0 -1 0
usemtl m_827fe515-5951-9d89-edaf-f41a701d2e01
f 116/340/85 119/339/85 117/338/85 114/337/85
f 115/344/86 116/343/86 114/342/86 113/341/86
f 120/348/87 115/347/87 113/346/87 118/345/87
f 119/352/88 120/351/88 118/350/88 117/349/88
f 118/356/89 113/355/89 114/354/89 117/353/89
f 119/360/90 116/359/90 115/358/90 120/357/90
o Body Layer
v -0.3918821819022138 1.515625 -3.320758531794353
v -0.4764556880127906 1.515625 -3.588991424192292
v -0.3918821819022138 0.734375 -3.320758531794353
v -0.4764556880127906 0.734375 -3.588991424192292
v -0.9831178180977862 1.515625 -3.429241468205647
v -0.8985443119872094 1.515625 -3.161008575807708
v -0.9831178180977862 0.734375 -3.429241468205647
v -0.8985443119872094 0.734375 -3.161008575807708
vt 0.3125 0.4375
vt 0.4375 0.4375
vt 0.4375 0.25
vt 0.3125 0.25
vt 0.25 0.4375
vt 0.3125 0.4375
vt 0.3125 0.25
vt 0.25 0.25
vt 0.5 0.4375
vt 0.625 0.4375
vt 0.625 0.25
vt 0.5 0.25
vt 0.4375 0.4375
vt 0.5 0.4375
vt 0.5 0.25
vt 0.4375 0.25
vt 0.4375 0.4375
vt 0.3125 0.4375
vt 0.3125 0.5
vt 0.4375 0.5
vt 0.5625 0.5
vt 0.4375 0.5
vt 0.4375 0.4375
vt 0.5625 0.4375
vn -0.30070579950427306 0 -0.9537169507482269
vn 0.9537169507482269 0 -0.30070579950427306
vn 0.30070579950427306 0 0.9537169507482269
vn -0.9537169507482269 0 0.30070579950427306
vn 0 1 0
vn 0 -1 0
usemtl m_827fe515-5951-9d89-edaf-f41a701d2e01
f 124/364/91 127/363/91 125/362/91 122/361/91
f 123/368/92 124/367/92 122/366/92 121/365/92
f 128/372/93 123/371/93 121/370/93 126/369/93
f 127/376/94 128/375/94 126/374/94 125/373/94
f 126/380/95 121/379/95 122/378/95 125/377/95
f 127/384/96 124/383/96 123/382/96 128/381/96
o Right Arm
v -0.1917824791555195 1.5 -3.3607879268488032
v -0.21357141484243403 1.5 -3.6098366013717396
v -0.1917824791555195 0.75 -3.3607879268488032
v -0.21357141484243403 0.75 -3.6098366013717396
v -0.4626200893653704 1.5 -3.588047665684825
v -0.4408311536784559 1.5 -3.3389989911618887
v -0.4626200893653704 0.75 -3.588047665684825
v -0.4408311536784559 0.75 -3.3389989911618887
vt 0.6875 0.6875
vt 0.75 0.6875
vt 0.75 0.5
vt 0.6875 0.5
vt 0.625 0.6875
vt 0.6875 0.6875
vt 0.6875 0.5
vt 0.625 0.5
vt 0.8125 0.6875
vt 0.875 0.6875
vt 0.875 0.5
vt 0.8125 0.5
vt 0.75 0.6875
vt 0.8125 0.6875
vt 0.8125 0.5
vt 0.75 0.5
vt 0.75 0.6875
vt 0.6875 0.6875
vt 0.6875 0.75
vt 0.75 0.75
vt 0.8125 0.75
vt 0.75 0.75
vt 0.75 0.6875
vt 0.8125 0.6875
vn -0.08715574274765811 0 -0.9961946980917455
vn 0.9961946980917455 0 -0.08715574274765811
vn 0.08715574274765811 0 0.9961946980917455
vn -0.9961946980917455 0 0.08715574274765811
vn 0 1 0
vn 0 -1 0
usemtl m_827fe515-5951-9d89-edaf-f41a701d2e01
f 132/388/97 135/387/97 133/386/97 130/385/97
f 131/392/98 132/391/98 130/390/98 129/389/98
f 136/396/99 131/395/99 129/394/99 134/393/99
f 135/400/100 136/399/100 134/398/100 133/397/100
f 134/404/101 129/403/101 130/402/101 133/401/101
f 135/408/102 132/407/102 131/406/102 136/405/102
o Right Arm Layer
v -0.1748551285174038 1.515625 -3.3465841931715516
v -0.19936768116518255 1.515625 -3.6267639520098554
v -0.1748551285174038 0.734375 -3.3465841931715516
v -0.19936768116518255 0.734375 -3.6267639520098554
v -0.4795474400034861 1.515625 -3.6022513993620766
v -0.45503488735570724 1.515625 -3.322071640523773
v -0.4795474400034861 0.734375 -3.6022513993620766
v -0.45503488735570724 0.734375 -3.322071640523773
vt 0.6875 0.4375
vt 0.75 0.4375
vt 0.75 0.25
vt 0.6875 0.25
vt 0.625 0.4375
vt 0.6875 0.4375
vt 0.6875 0.25
vt 0.625 0.25
vt 0.8125 0.4375
vt 0.875 0.4375
vt 0.875 0.25
vt 0.8125 0.25
vt 0.75 0.4375
vt 0.8125 0.4375
vt 0.8125 0.25
vt 0.75 0.25
vt 0.75 0.4375
vt 0.6875 0.4375
vt 0.6875 0.5
vt 0.75 0.5
vt 0.8125 0.5
vt 0.75 0.5
vt 0.75 0.4375
vt 0.8125 0.4375
vn -0.08715574274765811 0 -0.9961946980917455
vn 0.9961946980917455 0 -0.08715574274765811
vn 0.08715574274765811 0 0.9961946980917455
vn -0.9961946980917455 0 0.08715574274765811
vn 0 1 0
vn 0 -1 0
usemtl m_827fe515-5951-9d89-edaf-f41a701d2e01
f 140/412/103 143/411/103 141/410/103 138/409/103
f 139/416/104 140/415/104 138/414/104 137/413/104
f 144/420/105 139/419/105 137/418/105 142/417/105
f 143/424/106 144/423/106 142/422/106 141/421/106
f 142/428/107 137/427/107 138/426/107 141/425/107
f 143/432/108 140/431/108 139/430/108 144/429/108
o Left Arm
v -0.892813802327939 1.5 -3.176464899687689
v -0.9575185636035692 1.5 -3.417946356259956
v -0.892813802327939 0.75 -3.176464899687689
v -0.9575185636035692 0.75 -3.417946356259956
v -1.1990000201758364 1.5 -3.353241594984326
v -1.134295258900206 1.5 -3.1117601384120586
v -1.1990000201758364 0.75 -3.353241594984326
v -1.134295258900206 0.75 -3.1117601384120586
vt 0.5625 0.1875
vt 0.625 0.1875
vt 0.625 0
vt 0.5625 0
vt 0.5 0.1875
vt 0.5625 0.1875
vt 0.5625 0
vt 0.5 0
vt 0.6875 0.1875
vt 0.75 0.1875
vt 0.75 0
vt 0.6875 0
vt 0.625 0.1875
vt 0.6875 0.1875
vt 0.6875 0
vt 0.625 0
vt 0.625 0.1875
vt 0.5625 0.1875
vt 0.5625 0.25
vt 0.625 0.25
vt 0.6875 0.25
vt 0.625 0.25
vt 0.625 0.1875
vt 0.6875 0.1875
vn -0.25881904510252074 0 -0.9659258262890684
vn 0.9659258262890684 0 -0.25881904510252074
vn 0.25881904510252074 0 0.9659258262890684
vn -0.9659258262890684 0 0.25881904510252074
vn 0 1 0
vn 0 -1 0
usemtl m_827fe515-5951-9d89-edaf-f41a701d2e01
f 148/436/109 151/435/109 149/434/109 146/433/109
f 147/440/110 148/439/110 146/438/110 145/437/110
f 152/444/111 147/443/111 145/442/111 150/441/111
f 151/448/112 152/447/112 150/446/112 149/445/112
f 150/452/113 145/451/113 146/450/113 149/449/113
f 151/456/114 148/455/114 147/454/114 152/453/114
o Left Arm Layer
v -0.8736771637124454 1.515625 -3.165416356231649
v -0.9464700201475293 1.515625 -3.4370829948754498
v -0.8736771637124454 0.734375 -3.165416356231649
v -0.9464700201475293 0.734375 -3.4370829948754498
v -1.2181366587913298 1.515625 -3.3642901384403654
v -1.1453438023562459 1.515625 -3.092623499796565
v -1.2181366587913298 0.734375 -3.3642901384403654
v -1.1453438023562459 0.734375 -3.092623499796565
vt 0.8125 0.1875
vt 0.875 0.1875
vt 0.875 0
vt 0.8125 0
vt 0.75 0.1875
vt 0.8125 0.1875
vt 0.8125 0
vt 0.75 0
vt 0.9375 0.1875
vt 1 0.1875
vt 1 0
vt 0.9375 0
vt 0.875 0.1875
vt 0.9375 0.1875
vt 0.9375 0
vt 0.875 0
vt 0.875 0.1875
vt 0.8125 0.1875
vt 0.8125 0.25
vt 0.875 0.25
vt 0.9375 0.25
vt 0.875 0.25
vt 0.875 0.1875
vt 0.9375 0.1875
vn -0.25881904510252074 0 -0.9659258262890684
vn 0.9659258262890684 0 -0.25881904510252074
vn 0.25881904510252074 0 0.9659258262890684
vn -0.9659258262890684 0 0.25881904510252074
vn 0 1 0
vn 0 -1 0
usemtl m_827fe515-5951-9d89-edaf-f41a701d2e01
f 156/460/115 159/459/115 157/458/115 154/457/115
f 155/464/116 156/463/116 154/462/116 153/461/116
f 160/468/117 155/467/117 153/466/117 158/465/117
f 159/472/118 160/471/118 158/470/118 157/469/118
f 158/476/119 153/475/119 154/474/119 157/473/119
f 159/480/120 156/479/120 155/478/120 160/477/120
o Right Leg
v -0.46055971271574364 0.8134986396497976 -3.2911541175977717
v -0.43888519168968826 0.6986152425473278 -3.5121338003934697
v -0.4534302818114575 0.1483704336963938 -2.9446665408216517
v -0.4317557607854021 0.033487036593923936 -3.1656462236173497
v -0.6879325114815528 0.6865013603502025 -3.5302635097844934
v -0.7096070325076081 0.8013847574526723 -3.3092838269887954
v -0.6808030805772666 0.02137315439679862 -3.1837759330083735
v -0.702477601603322 0.1362565514992685 -2.9627962502126755
vt 0.0625 0.6875
vt 0.125 0.6875
vt 0.125 0.5
vt 0.0625 0.5
vt 0 0.6875
vt 0.0625 0.6875
vt 0.0625 0.5
vt 0 0.5
vt 0.1875 0.6875
vt 0.25 0.6875
vt 0.25 0.5
vt 0.1875 0.5
vt 0.125 0.6875
vt 0.1875 0.6875
vt 0.1875 0.5
vt 0.125 0.5
vt 0.125 0.6875
vt 0.0625 0.6875
vt 0.0625 0.75
vt 0.125 0.75
vt 0.1875 0.75
vt 0.125 0.75
vt 0.125 0.6875
vt 0.1875 0.6875
vn 0.08669808410422154 -0.45953358840987957 -0.883918731182792
vn 0.9961892791674578 0.04845552878850129 0.07251883756409501
vn -0.08669808410422154 0.45953358840987957 0.883918731182792
vn -0.9961892791674578 -0.04845552878850129 -0.07251883756409501
vn -0.009505907872381522 0.8868376079378718 -0.46198343570149314
vn 0.009505907872381522 -0.8868376079378718 0.46198343570149314
usemtl m_827fe515-5951-9d89-edaf-f41a701d2e01
f 164/484/121 167/483/121 165/482/121 162/481/121
f 163/488/122 164/487/122 162/486/122 161/485/122
f 168/492/123 163/491/123 161/490/123 166/489/123
f 167/496/124 168/495/124 166/494/124 165/493/124
f 166/500/125 161/499/125 162/498/125 165/497/125
f 167/504/126 164/503/126 163/502/126 168/501/126
o Right Leg Layer
v -0.44649744260338653 0.8352928072300516 -3.2834282717689374
v -0.42211360644907425 0.7060489854897729 -3.5320304149140975
v -0.43907095207808844 0.14245092602858928 -2.9225037126271456
v -0.41468711592377616 0.01320710428831065 -3.1711058557723057
v -0.7022918412149217 0.692420868018007 -3.552426337978999
v -0.7266756773692341 0.8216646897582857 -3.303824194833839
v -0.6948653506896236 -0.0004210131834553321 -3.1915017788372078
v -0.719249186843936 0.1288228085568233 -2.9428996356920476
vt 0.0625 0.4375
vt 0.125 0.4375
vt 0.125 0.25
vt 0.0625 0.25
vt 0 0.4375
vt 0.0625 0.4375
vt 0.0625 0.25
vt 0 0.25
vt 0.1875 0.4375
vt 0.25 0.4375
vt 0.25 0.25
vt 0.1875 0.25
vt 0.125 0.4375
vt 0.1875 0.4375
vt 0.1875 0.25
vt 0.125 0.25
vt 0.125 0.4375
vt 0.0625 0.4375
vt 0.0625 0.5
vt 0.125 0.5
vt 0.1875 0.5
vt 0.125 0.5
vt 0.125 0.4375
vt 0.1875 0.4375
vn 0.08669808410422154 -0.45953358840987957 -0.883918731182792
vn 0.9961892791674578 0.04845552878850129 0.07251883756409501
vn -0.08669808410422154 0.45953358840987957 0.883918731182792
vn -0.9961892791674578 -0.04845552878850129 -0.07251883756409501
vn -0.009505907872381522 0.8868376079378718 -0.46198343570149314
vn 0.009505907872381522 -0.8868376079378718 0.46198343570149314
usemtl m_827fe515-5951-9d89-edaf-f41a701d2e01
f 172/508/127 175/507/127 173/506/127 170/505/127
f 171/512/128 172/511/128 170/510/128 169/509/128
f 176/516/129 171/515/129 169/514/129 174/513/129
f 175/520/130 176/519/130 174/518/130 173/517/130
f 174/524/131 169/523/131 170/522/131 173/521/131
f 175/528/132 172/527/132 171/526/132 176/525/132
o Left Leg
v -0.7048575690428355 0.7120044081762718 -3.2454973632161894
v -0.7779720844453617 0.787444416806597 -3.472352102499525
v -0.7759335992916435 -0.0030316131090984758 -3.460373341837482
v -0.8490481146941697 0.07240839552122691 -3.687228081120818
v -1.0158648256033966 0.7879955918237282 -3.3954967844635124
v -0.9427503102008704 0.712555583193403 -3.1686420451801767
v -1.0869408558522047 0.07295957053835815 -3.610372763084805
v -1.0138263404496786 -0.002480438091967227 -3.3835180238014693
vt 0.3125 0.1875
vt 0.375 0.1875
vt 0.375 0
vt 0.3125 0
vt 0.25 0.1875
vt 0.3125 0.1875
vt 0.3125 0
vt 0.25 0
vt 0.4375 0.1875
vt 0.5 0.1875
vt 0.5 0
vt 0.4375 0
vt 0.375 0.1875
vt 0.4375 0.1875
vt 0.4375 0
vt 0.375 0
vt 0.375 0.1875
vt 0.3125 0.1875
vt 0.3125 0.25
vt 0.375 0.25
vt 0.4375 0.25
vt 0.375 0.25
vt 0.375 0.1875
vt 0.4375 0.1875
vn -0.2924580616101049 0.3017600345213015 -0.9074189571333425
vn 0.9515709646321397 -0.0022047000685249535 -0.3074212721440513
vn 0.2924580616101049 -0.3017600345213015 0.9074189571333425
vn -0.9515709646321397 0.0022047000685249535 0.3074212721440513
vn 0.09476804033174412 0.953381361713827 0.28650130482839026
vn -0.09476804033174412 -0.953381361713827 -0.28650130482839026
usemtl m_827fe515-5951-9d89-edaf-f41a701d2e01
f 180/532/133 183/531/133 181/530/133 178/529/133
f 179/536/134 180/535/134 178/534/134 177/533/134
f 184/540/135 179/539/135 177/538/135 182/537/135
f 183/544/136 184/543/136 182/542/136 181/541/136
f 182/548/137 177/547/137 178/546/137 181/545/137
f 183/552/138 180/551/138 179/550/138 184/549/138
o Left Leg Layer
v -0.6839388648776169 0.7221515429750842 -3.231645816500288
v -0.7661926947054589 0.8070215526842002 -3.486857398194041
v -0.7579763963867919 -0.022677645863843056 -3.455474960897468
v -0.840230226214634 0.062192363845273 -3.7106865425912208
v -1.0338220285082482 0.8076416245784728 -3.400395165403526
v -0.9515681986804062 0.7227716148693568 -3.1451835837097737
v -1.1078595600174233 0.06281243573954565 -3.6242243098007063
v -1.0256057301895813 -0.022057573969570407 -3.3690127281069535
vt 0.0625 0.1875
vt 0.125 0.1875
vt 0.125 0
vt 0.0625 0
vt 0 0.1875
vt 0.0625 0.1875
vt 0.0625 0
vt 0 0
vt 0.1875 0.1875
vt 0.25 0.1875
vt 0.25 0
vt 0.1875 0
vt 0.125 0.1875
vt 0.1875 0.1875
vt 0.1875 0
vt 0.125 0
vt 0.125 0.1875
vt 0.0625 0.1875
vt 0.0625 0.25
vt 0.125 0.25
vt 0.1875 0.25
vt 0.125 0.25
vt 0.125 0.1875
vt 0.1875 0.1875
vn -0.2924580616101049 0.3017600345213015 -0.9074189571333425
vn 0.9515709646321397 -0.0022047000685249535 -0.3074212721440513
vn 0.2924580616101049 -0.3017600345213015 0.9074189571333425
vn -0.9515709646321397 0.0022047000685249535 0.3074212721440513
vn 0.09476804033174412 0.953381361713827 0.28650130482839026
vn -0.09476804033174412 -0.953381361713827 -0.28650130482839026
usemtl m_827fe515-5951-9d89-edaf-f41a701d2e01
f 188/556/139 191/555/139 189/554/139 186/553/139
f 187/560/140 188/559/140 186/558/140 185/557/140
f 192/564/141 187/563/141 185/562/141 190/561/141
f 191/568/142 192/567/142 190/566/142 189/565/142
f 190/572/143 185/571/143 186/570/143 189/569/143
f 191/576/144 188/575/144 187/574/144 192/573/144
o Head
v 2.543815554985797 2 -3.787810138396686
v 2.774689861603314 2 -4.231315554985797
v 2.543815554985797 1.5 -3.787810138396686
v 2.774689861603314 1.5 -4.231315554985797
v 2.331184445014203 2 -4.4621898616033135
v 2.100310138396686 2 -4.018684445014203
v 2.331184445014203 1.5 -4.4621898616033135
v 2.100310138396686 1.5 -4.018684445014203
vt 0.125 0.875
vt 0.25 0.875
vt 0.25 0.75
vt 0.125 0.75
vt 0 0.875
vt 0.125 0.875
vt 0.125 0.75
vt 0 0.75
vt 0.375 0.875
vt 0.5 0.875
vt 0.5 0.75
vt 0.375 0.75
vt 0.25 0.875
vt 0.375 0.875
vt 0.375 0.75
vt 0.25 0.75
vt 0.25 0.875
vt 0.125 0.875
vt 0.125 1
vt 0.25 1
vt 0.375 1
vt 0.25 1
vt 0.25 0.875
vt 0.375 0.875
vn 0.4617486132350339 0 -0.8870108331782217
vn 0.8870108331782217 0 0.4617486132350339
vn -0.4617486132350339 0 0.8870108331782217
vn -0.8870108331782217 0 -0.4617486132350339
vn 0 1 0
vn 0 -1 0
usemtl m_076b1d41-6f4c-a162-9f6c-76f9e42da027
f 196/580/145 199/579/145 197/578/145 194/577/145
f 195/584/146 196/583/146 194/582/146 193/581/146
f 200/588/147 195/587/147 193/586/147 198/585/147
f 199/592/148 200/591/148 198/590/148 197/589/148
f 198/596/149 193/595/149 194/594/149 197/593/149
f 199/600/150 196/599/150 195/598/150 200/597/150
o Hat Layer
v 2.5571049993590216 2.03125 -3.745661405696272
v 2.816838594303728 2.03125 -4.244604999359021
v 2.5571049993590216 1.46875 -3.745661405696272
v 2.816838594303728 1.46875 -4.244604999359021
v 2.3178950006409784 2.03125 -4.504338594303729
v 2.058161405696272 2.03125 -4.005395000640979
v 2.3178950006409784 1.46875 -4.504338594303729
v 2.058161405696272 1.46875 -4.005395000640979
vt 0.625 0.875
vt 0.75 0.875
vt 0.75 0.75
vt 0.625 0.75
vt 0.5 0.875
vt 0.625 0.875
vt 0.625 0.75
vt 0.5 0.75
vt 0.875 0.875
vt 1 0.875
vt 1 0.75
vt 0.875 0.75
vt 0.75 0.875
vt 0.875 0.875
vt 0.875 0.75
vt 0.75 0.75
vt 0.75 0.875
vt 0.625 0.875
vt 0.625 1
vt 0.75 1
vt 0.875 1
vt 0.75 1
vt 0.75 0.875
vt 0.875 0.875
vn 0.4617486132350339 0 -0.8870108331782217
vn 0.8870108331782217 0 0.4617486132350339
vn -0.4617486132350339 0 0.8870108331782217
vn -0.8870108331782217 0 -0.4617486132350339
vn 0 1 0
vn 0 -1 0
usemtl m_076b1d41-6f4c-a162-9f6c-76f9e42da027
f 204/604/151 207/603/151 205/602/151 202/601/151
f 203/608/152 204/607/152 202/606/152 201/605/152
f 208/612/153 203/611/153 201/610/153 206/609/153
f 207/616/154 208/615/154 206/614/154 205/613/154
f 206/620/155 201/619/155 202/618/155 205/617/155
f 207/624/156 204/623/156 203/622/156 208/621/156
o Body
v 2.605927696677891 1.5478354290456362 -3.907126452455099
v 2.71257771991122 1.4521645709543638 -4.111999240927385
v 2.4734000385259383 0.8549257796621712 -3.6525431898158542
v 2.580050061759268 0.7592549215708988 -3.85741597828814
v 2.269072303322109 1.4521645709543638 -4.342873547544902
v 2.1624222800887796 1.5478354290456362 -4.138000759072616
v 2.136544645170157 0.7592549215708988 -4.088290284905657
v 2.0298946219368275 0.8549257796621712 -3.883417496433371
vt 0.3125 0.6875
vt 0.4375 0.6875
vt 0.4375 0.5
vt 0.3125 0.5
vt 0.25 0.6875
vt 0.3125 0.6875
vt 0.3125 0.5
vt 0.25 0.5
vt 0.5 0.6875
vt 0.625 0.6875
vt 0.625 0.5
vt 0.5 0.5
vt 0.4375 0.6875
vt 0.5 0.6875
vt 0.5 0.5
vt 0.4375 0.5
vt 0.4375 0.6875
vt 0.3125 0.6875
vt 0.3125 0.75
vt 0.4375 0.75
vt 0.5625 0.75
vt 0.4375 0.75
vt 0.4375 0.6875
vt 0.5625 0.6875
vn 0.4266000929333182 -0.3826834323650898 -0.8194911538891426
vn 0.8870108331782218 0 0.46174861323503397
vn -0.4266000929333182 0.3826834323650898 0.8194911538891426
vn -0.8870108331782218 0 -0.46174861323503397
vn 0.1767035442026031 0.923879532511287 -0.33944435018565994
vn -0.1767035442026031 -0.923879532511287 0.33944435018565994
usemtl m_076b1d41-6f4c-a162-9f6c-76f9e42da027
f 212/628/157 215/627/157 213/626/157 210/625/157
f 211/632/158 212/631/158 210/630/158 209/629/158
f 216/636/159 211/635/159 209/634/159 214/633/159
f 215/640/160 216/639/160 214/638/160 213/637/160
f 214/644/161 209/643/161 210/642/161 213/641/161
f 215/648/162 212/647/162 211/646/162 216/645/162
o Body Layer
v 2.6158826073723827 1.5682504753718296 -3.8924108990654345
v 2.7358638835098787 1.4606207600191483 -4.122892786096756
v 2.4778329634640994 0.8464695905973869 -3.627220000482888
v 2.597814239601595 0.7388398752447054 -3.8577018875142093
v 2.2646393783839485 1.4606207600191483 -4.368196736877867
v 2.144658102246453 1.5682504753718296 -4.137714849846547
v 2.126589734475665 0.7388398752447054 -4.103005838295321
v 2.006608458338169 0.8464695905973869 -3.8725239512639997
vt 0.3125 0.4375
vt 0.4375 0.4375
vt 0.4375 0.25
vt 0.3125 0.25
vt 0.25 0.4375
vt 0.3125 0.4375
vt 0.3125 0.25
vt 0.25 0.25
vt 0.5 0.4375
vt 0.625 0.4375
vt 0.625 0.25
vt 0.5 0.25
vt 0.4375 0.4375
vt 0.5 0.4375
vt 0.5 0.25
vt 0.4375 0.25
vt 0.4375 0.4375
vt 0.3125 0.4375
vt 0.3125 0.5
vt 0.4375 0.5
vt 0.5625 0.5
vt 0.4375 0.5
vt 0.4375 0.4375
vt 0.5625 0.4375
vn 0.4266000929333182 -0.3826834323650898 -0.8194911538891426
vn 0.8870108331782218 0 0.46174861323503397
vn -0.4266000929333182 0.3826834323650898 0.8194911538891426
vn -0.8870108331782218 0 -0.46174861323503397
vn 0.1767035442026031 0.923879532511287 -0.33944435018565994
vn -0.1767035442026031 -0.923879532511287 0.33944435018565994
usemtl m_076b1d41-6f4c-a162-9f6c-76f9e42da027
f 220/652/163 223/651/163 221/650/163 218/649/163
f 219/656/164 220/655/164 218/654/164 217/653/164
f 224/660/165 219/659/165 217/658/165 222/657/165
f 223/664/166 224/663/166 222/662/166 221/661/166
f 222/668/167 217/667/167 218/666/167 221/665/167
f 223/672/168 220/671/168 219/670/168 224/669/168
o Right Arm
v 2.800077347799034 1.3980739889103144 -3.7386643196664524
v 2.8916597989702493 1.5502643461624948 -3.914592571510566
v 3.01089840702585 0.8030589836918881 -4.143647806430295
v 3.102480858197065 0.9552493409440682 -4.319576058274408
v 2.669907090675694 1.5502643461624948 -4.030029724819324
v 2.5783246395044785 1.3980739889103144 -3.8541014729752106
v 2.8807281499025095 0.9552493409440682 -4.435013211583167
v 2.7891456987312946 0.8030589836918881 -4.259084959739053
vt 0.6875 0.6875
vt 0.75 0.6875
vt 0.75 0.5
vt 0.6875 0.5
vt 0.625 0.6875
vt 0.6875 0.6875
vt 0.6875 0.5
vt 0.625 0.5
vt 0.8125 0.6875
vt 0.875 0.6875
vt 0.875 0.5
vt 0.8125 0.5
vt 0.75 0.6875
vt 0.8125 0.6875
vt 0.8125 0.5
vt 0.75 0.5
vt 0.75 0.6875
vt 0.6875 0.6875
vt 0.6875 0.75
vt 0.75 0.75
vt 0.8125 0.75
vt 0.75 0.75
vt 0.75 0.6875
vt 0.8125 0.6875
vn 0.3663298046848598 0.6087614290087207 -0.7037130073764537
vn 0.8870108331782217 -2.7755575615628914e-17 0.4617486132350339
vn -0.3663298046848598 -0.6087614290087207 0.7037130073764537
vn -0.8870108331782217 2.7755575615628914e-17 -0.4617486132350339
vn -0.2810947456357543 0.7933533402912352 0.5399779823517902
vn 0.2810947456357543 -0.7933533402912352 -0.5399779823517902
usemtl m_076b1d41-6f4c-a162-9f6c-76f9e42da027
f 228/676/169 231/675/169 229/674/169 226/673/169
f 227/680/170 228/679/170 226/678/170 225/677/170
f 232/684/171 227/683/171 225/682/171 230/681/171
f 231/688/172 232/687/172 230/686/172 229/685/172
f 230/692/173 225/691/173 226/690/173 229/689/173
f 231/696/174 228/695/174 227/694/174 232/693/174
o Right Arm Layer
v 2.8038208834686844 1.4009582375241039 -3.712016825870151
v 2.906851141036301 1.5721723894328063 -3.9099361091947786
v 3.0234261534966174 0.7811509404215762 -4.1338746245824876
v 3.1264564110642343 0.9523650923302789 -4.331793907907114
v 2.657379344204926 1.5721723894328063 -4.039802906667132
v 2.5543490866373095 1.4009582375241039 -3.8418836233425044
v 2.8769846142328594 0.9523650923302789 -4.461660705379468
v 2.7739543566652425 0.7811509404215762 -4.26374142205484
vt 0.6875 0.4375
vt 0.75 0.4375
vt 0.75 0.25
vt 0.6875 0.25
vt 0.625 0.4375
vt 0.6875 0.4375
vt 0.6875 0.25
vt 0.625 0.25
vt 0.8125 0.4375
vt 0.875 0.4375
vt 0.875 0.25
vt 0.8125 0.25
vt 0.75 0.4375
vt 0.8125 0.4375
vt 0.8125 0.25
vt 0.75 0.25
vt 0.75 0.4375
vt 0.6875 0.4375
vt 0.6875 0.5
vt 0.75 0.5
vt 0.8125 0.5
vt 0.75 0.5
vt 0.75 0.4375
vt 0.8125 0.4375
vn 0.3663298046848598 0.6087614290087207 -0.7037130073764537
vn 0.8870108331782217 -2.7755575615628914e-17 0.4617486132350339
vn -0.3663298046848598 -0.6087614290087207 0.7037130073764537
vn -0.8870108331782217 2.7755575615628914e-17 -0.4617486132350339
vn -0.2810947456357543 0.7933533402912352 0.5399779823517902
vn 0.2810947456357543 -0.7933533402912352 -0.5399779823517902
usemtl m_076b1d41-6f4c-a162-9f6c-76f9e42da027
f 236/700/175 239/699/175 237/698/175 234/697/175
f 235/704/176 236/703/176 234/702/176 233/701/176
f 240/708/177 235/707/177 233/706/177 238/705/177
f 239/712/178 240/711/178 238/710/178 237/709/178
f 238/716/179 233/715/179 234/714/179 237/713/179
f 239/720/180 236/719/180 235/718/180 240/717/180
o Left Arm
v 2.2264016740865826 1.5502643461624945 -4.260904031436842
v 2.2966753604955215 1.3519260110896858 -4.395898527024789
v 1.9516543205729378 1.093693274405954 -3.7331192759045013
v 2.0219280069818764 0.8953549393331451 -3.8681137714924487
v 2.074922652200966 1.3519260110896858 -4.511335680333548
v 2.0046489657920272 1.5502643461624945 -4.3763411847456
v 1.800175298687321 0.8953549393331451 -3.9835509248012073
v 1.7299016122783824 1.093693274405954 -3.8485564292132595
vt 0.5625 0.1875
vt 0.625 0.1875
vt 0.625 0
vt 0.5625 0
vt 0.5 0.1875
vt 0.5625 0.1875
vt 0.5625 0
vt 0.5 0
vt 0.6875 0.1875
vt 0.75 0.1875
vt 0.75 0
vt 0.6875 0
vt 0.625 0.1875
vt 0.6875 0.1875
vt 0.6875 0
vt 0.625 0
vt 0.625 0.1875
vt 0.5625 0.1875
vt 0.5625 0.25
vt 0.625 0.25
vt 0.6875 0.25
vt 0.625 0.25
vt 0.625 0.1875
vt 0.6875 0.1875
vn 0.2810947456357543 -0.7933533402912352 -0.5399779823517902
vn 0.8870108331782217 -2.7755575615628914e-17 0.4617486132350339
vn -0.2810947456357543 0.7933533402912352 0.5399779823517902
vn -0.8870108331782217 2.7755575615628914e-17 -0.4617486132350339
vn 0.3663298046848598 0.6087614290087207 -0.7037130073764537
vn -0.3663298046848598 -0.6087614290087207 0.7037130073764537
usemtl m_076b1d41-6f4c-a162-9f6c-76f9e42da027
f 244/724/181 247/723/181 245/722/181 242/721/181
f 243/728/182 244/727/182 242/726/182 241/725/182
f 248/732/183 243/731/183 241/730/183 246/729/183
f 247/736/184 248/735/184 246/734/184 245/733/184
f 246/740/185 241/739/185 242/738/185 245/737/185
f 247/744/186 244/743/186 243/742/186 248/741/186
o Left Arm Layer
v 2.2415930161526347 1.5721723894328063 -4.256247569121054
v 2.3206509133626905 1.3490417624758964 -4.408116376657495
v 1.955397856242588 1.0965775230197432 -3.7064717821082
v 2.0344557534526437 0.8734468960628334 -3.8583405896446408
v 2.0711791165313156 1.3490417624758964 -4.537983174129849
v 1.9921212193212599 1.5721723894328063 -4.386114366593407
v 1.784983956621269 0.8734468960628334 -3.988207387116994
v 1.7059260594112131 1.0965775230197432 -3.8363385795805534
vt 0.8125 0.1875
vt 0.875 0.1875
vt 0.875 0
vt 0.8125 0
vt 0.75 0.1875
vt 0.8125 0.1875
vt 0.8125 0
vt 0.75 0
vt 0.9375 0.1875
vt 1 0.1875
vt 1 0
vt 0.9375 0
vt 0.875 0.1875
vt 0.9375 0.1875
vt 0.9375 0
vt 0.875 0
vt 0.875 0.1875
vt 0.8125 0.1875
vt 0.8125 0.25
vt 0.875 0.25
vt 0.9375 0.25
vt 0.875 0.25
vt 0.875 0.1875
vt 0.9375 0.1875
vn 0.2810947456357543 -0.7933533402912352 -0.5399779823517902
vn 0.8870108331782217 -2.7755575615628914e-17 0.4617486132350339
vn -0.2810947456357543 0.7933533402912352 0.5399779823517902
vn -0.8870108331782217 2.7755575615628914e-17 -0.4617486132350339
vn 0.3663298046848598 0.6087614290087207 -0.7037130073764537
vn -0.3663298046848598 -0.6087614290087207 0.7037130073764537
usemtl m_076b1d41-6f4c-a162-9f6c-76f9e42da027
f 252/748/187 255/747/187 253/746/187 250/745/187
f 251/752/188 252/751/188 250/750/188 249/749/188
f 256/756/189 251/755/189 249/754/189 254/753/189
f 255/760/190 256/759/190 254/758/190 253/757/190
f 254/764/191 249/763/191 250/762/191 253/761/191
f 255/768/192 252/767/192 251/766/192 256/765/192
o Right Leg
v 2.555343210825491 0.7124117750619658 -3.8470221343128723
v 2.6834511468531788 0.7875882249380342 -4.048111313809823
v 2.6765200420514397 -0.00287593799920436 -4.037231658569043
v 2.804627978079127 0.07230051187686387 -4.238320838065994
v 2.4726032853999573 0.7875882249380342 -4.182436215896529
v 2.34449534937227 0.7124117750619658 -3.9813470363995784
v 2.593780116625906 0.0723005118768639 -4.3726457401527
v 2.4656721805982182 -0.0028759379992043463 -4.171556560655749
vt 0.0625 0.6875
vt 0.125 0.6875
vt 0.125 0.5
vt 0.0625 0.5
vt 0 0.6875
vt 0.0625 0.6875
vt 0.0625 0.5
vt 0 0.5
vt 0.1875 0.6875
vt 0.25 0.6875
vt 0.25 0.5
vt 0.1875 0.5
vt 0.125 0.6875
vt 0.1875 0.6875
vt 0.1875 0.5
vt 0.125 0.5
vt 0.125 0.6875
vt 0.0625 0.6875
vt 0.0625 0.75
vt 0.125 0.75
vt 0.1875 0.75
vt 0.125 0.75
vt 0.125 0.6875
vt 0.1875 0.6875
vn 0.5124317441107502 0.30070579950427295 -0.8043567179878033
vn 0.8433914458128852 -5.551115123125783e-17 0.5372996083468247
vn -0.5124317441107502 -0.30070579950427295 0.8043567179878033
vn -0.8433914458128852 5.551115123125783e-17 -0.5372996083468247
vn -0.16156910830126459 0.953716950748227 0.2536126990082284
vn 0.16156910830126459 -0.953716950748227 -0.2536126990082284
usemtl m_076b1d41-6f4c-a162-9f6c-76f9e42da027
f 260/772/193 263/771/193 261/770/193 258/769/193
f 259/776/194 260/775/194 258/774/194 257/773/194
f 264/780/195 259/779/195 257/778/195 262/777/195
f 263/784/196 264/783/196 262/782/196 261/781/196
f 262/788/197 257/787/197 258/786/197 261/785/197
f 263/792/198 260/791/198 259/790/198 264/789/198
o Right Leg Layer
v 2.55798993884738 0.7226150743001526 -3.82209605579189
v 2.7021113668785284 0.8071885804107294 -4.04832138272596
v 2.6842158047077427 -0.022476293471899673 -4.020230976892068
v 2.828337232738891 0.06209721263867709 -4.246456303826138
v 2.4649075227436543 0.8071885804107294 -4.199436897573504
v 2.320786094712506 0.7226150743001526 -3.9732115706394344
v 2.591133388604017 0.06209721263867711 -4.397571818673683
v 2.4470119605728686 -0.022476293471899653 -4.171346491739613
vt 0.0625 0.4375
vt 0.125 0.4375
vt 0.125 0.25
vt 0.0625 0.25
vt 0 0.4375
vt 0.0625 0.4375
vt 0.0625 0.25
vt 0 0.25
vt 0.1875 0.4375
vt 0.25 0.4375
vt 0.25 0.25
vt 0.1875 0.25
vt 0.125 0.4375
vt 0.1875 0.4375
vt 0.1875 0.25
vt 0.125 0.25
vt 0.125 0.4375
vt 0.0625 0.4375
vt 0.0625 0.5
vt 0.125 0.5
vt 0.1875 0.5
vt 0.125 0.5
vt 0.125 0.4375
vt 0.1875 0.4375
vn 0.5124317441107502 0.30070579950427295 -0.8043567179878033
vn 0.8433914458128852 -5.551115123125783e-17 0.5372996083468247
vn -0.5124317441107502 -0.30070579950427295 0.8043567179878033
vn -0.8433914458128852 5.551115123125783e-17 -0.5372996083468247
vn -0.16156910830126459 0.953716950748227 0.2536126990082284
vn 0.16156910830126459 -0.953716950748227 -0.2536126990082284
usemtl m_076b1d41-6f4c-a162-9f6c-76f9e42da027
f 268/796/199 271/795/199 269/794/199 266/793/199
f 267/800/200 268/799/200 266/798/200 265/797/200
f 272/804/201 267/803/201 265/802/201 270/801/201
f 271/808/202 272/807/202 270/806/202 269/805/202
f 270/812/203 265/811/203 266/810/203 269/809/203
f 271/816/204 268/815/204 267/814/204 272/813/204
o Left Leg
v 2.199589776343815 0.7794095742978937 -3.631879405188565
v 2.2913421766925466 0.7149510341738188 -3.855322001027673
v 2.109957774977637 0.05496520458109247 -3.459697932559481
v 2.201710175326368 -0.009493335542982428 -3.683140528398589
v 2.0607151141957027 0.7205904257021063 -3.951651411423811
v 1.9689627138469712 0.7850489658261812 -3.7282088155847024
v 1.971083112829524 -0.0038539440146949655 -3.779469938794727
v 1.8793307124807928 0.06060459610937993 -3.5560273429556184
vt 0.3125 0.1875
vt 0.375 0.1875
vt 0.375 0
vt 0.3125 0
vt 0.25 0.1875
vt 0.3125 0.1875
vt 0.3125 0
vt 0.25 0
vt 0.4375 0.1875
vt 0.5 0.1875
vt 0.5 0
vt 0.4375 0
vt 0.375 0.1875
vt 0.4375 0.1875
vt 0.4375 0
vt 0.375 0
vt 0.375 0.1875
vt 0.3125 0.1875
vt 0.3125 0.25
vt 0.375 0.25
vt 0.4375 0.25
vt 0.375 0.25
vt 0.375 0.1875
vt 0.4375 0.1875
vn 0.36700960139492533 -0.25783416049629965 -0.8937703833564339
vn 0.9225082499873759 -0.022557566113149838 0.3853176415845505
vn -0.36700960139492533 0.25783416049629965 0.8937703833564339
vn -0.9225082499873759 0.022557566113149838 -0.3853176415845505
vn 0.11950933515490471 0.9659258262890684 -0.22957529683877878
vn -0.11950933515490471 -0.9659258262890684 0.22957529683877878
usemtl m_076b1d41-6f4c-a162-9f6c-76f9e42da027
f 276/820/205 279/819/205 277/818/205 274/817/205
f 275/824/206 276/823/206 274/822/206 273/821/206
f 280/828/207 275/827/207 273/826/207 278/825/207
f 279/832/208 280/831/208 278/830/208 277/829/208
f 278/836/209 273/835/209 274/834/209 277/833/209
f 279/840/210 276/839/210 275/838/210 280/837/210
o Left Leg Layer
v 2.210136776089868 0.7981783621208971 -3.615480768811968
v 2.3133582264821904 0.7256625044813128 -3.866853689130965
v 2.1167701080000985 0.0435488103325625 -3.436125068156672
v 2.219991558392421 -0.028967047307021765 -3.687497988475669
v 2.0539027811732407 0.7320068199506362 -3.97522427582662
v 1.950681330780918 0.8045226775902206 -3.723851355507623
v 1.9605361130834715 -0.022622731837698376 -3.795868575171324
v 1.8573146626911488 0.04989312580188589 -3.544495654852327
vt 0.0625 0.1875
vt 0.125 0.1875
vt 0.125 0
vt 0.0625 0
vt 0 0.1875
vt 0.0625 0.1875
vt 0.0625 0
vt 0 0
vt 0.1875 0.1875
vt 0.25 0.1875
vt 0.25 0
vt 0.1875 0
vt 0.125 0.1875
vt 0.1875 0.1875
vt 0.1875 0
vt 0.125 0
vt 0.125 0.1875
vt 0.0625 0.1875
vt 0.0625 0.25
vt 0.125 0.25
vt 0.1875 0.25
vt 0.125 0.25
vt 0.125 0.1875
vt 0.1875 0.1875
vn 0.36700960139492533 -0.25783416049629965 -0.8937703833564339
vn 0.9225082499873759 -0.022557566113149838 0.3853176415845505
vn -0.36700960139492533 0.25783416049629965 0.8937703833564339
vn -0.9225082499873759 0.022557566113149838 -0.3853176415845505
vn 0.11950933515490471 0.9659258262890684 -0.22957529683877878
vn -0.11950933515490471 -0.9659258262890684 0.22957529683877878
usemtl m_076b1d41-6f4c-a162-9f6c-76f9e42da027
f 284/844/211 287/843/211 285/842/211 282/841/211
f 283/848/212 284/847/212 282/846/212 281/845/212
f 288/852/213 283/851/213 281/850/213 286/849/213
f 287/856/214 288/855/214 286/854/214 285/853/214
f 286/860/215 281/859/215 282/858/215 285/857/215
f 287/864/216 284/863/216 283/862/216 288/861/216
o Head
v 0.5995348364090307 3.9863763485953005 -0.03707604536817777
v 0.5484711239155621 4.085509794232374 -0.5244825053402485
v 0.673761089183873 3.5034134354507662 -0.14308212031650502
v 0.6226973766904044 3.6025468810878394 -0.6304885802885758
v 0.056655141392231045 4.002326956560973 -0.4898753550452044
v 0.10771885388569957 3.9031935109238995 -0.0024688950731336368
v 0.13088139416707323 3.519364043416439 -0.5958814299935317
v 0.18194510666054187 3.4202305977793657 -0.10847497002146089
vt 0.125 0.875
vt 0.25 0.875
vt 0.25 0.75
vt 0.125 0.75
vt 0 0.875
vt 0.125 0.875
vt 0.125 0.75
vt 0 0.75
vt 0.375 0.875
vt 0.5 0.875
vt 0.5 0.75
vt 0.375 0.75
vt 0.25 0.875
vt 0.375 0.875
vt 0.375 0.75
vt 0.25 0.75
vt 0.25 0.875
vt 0.125 0.875
vt 0.125 1
vt 0.25 1
vt 0.375 1
vt 0.25 1
vt 0.25 0.875
vt 0.375 0.875
vn -0.10212742498693722 0.19826689127414618 -0.9748129199441418
vn 0.9836319650466623 0.16636567534280178 -0.06921430059008829
vn 0.10212742498693722 -0.19826689127414618 0.9748129199441418
vn -0.9836319650466623 -0.16636567534280178 0.06921430059008829
vn -0.14845250554968462 0.9659258262890684 0.21201214989665448
vn 0.14845250554968462 -0.9659258262890684 -0.21201214989665448
usemtl m_241610e2-640c-50d1-62ff-e4566c62ad39
f 292/868/217 295/867/217 293/866/217 290/865/217
f 291/872/218 292/871/218 290/870/218 289/869/218
f 296/876/219 291/875/219 289/874/219 294/873/219
f 295/880/220 296/879/220 294/878/220 293/877/220
f 294/884/221 289/883/221 290/882/221 293/881/221
f 295/888/222 292/887/222 291/886/222 296/885/222
o Hat Layer
v 0.628825676549153 4.015564617668979 -0.002150708829093073
v 0.5713789999940009 4.127089744010687 -0.5504829762976728
v 0.7123302109208506 3.4722313403813785 -0.12140754314596125
v 0.6548835343656985 3.5837564667230857 -0.6697398106145409
v 0.01808601965525336 4.033509051630361 -0.5115499322157482
v 0.07553269621040559 3.9219839252886532 0.03678233525283159
v 0.10159055402695094 3.4901757743427595 -0.6308067665326162
v 0.15903723058210312 3.3786506480010523 -0.08247449906403659
vt 0.625 0.875
vt 0.75 0.875
vt 0.75 0.75
vt 0.625 0.75
vt 0.5 0.875
vt 0.625 0.875
vt 0.625 0.75
vt 0.5 0.75
vt 0.875 0.875
vt 1 0.875
vt 1 0.75
vt 0.875 0.75
vt 0.75 0.875
vt 0.875 0.875
vt 0.875 0.75
vt 0.75 0.75
vt 0.75 0.875
vt 0.625 0.875
vt 0.625 1
vt 0.75 1
vt 0.875 1
vt 0.75 1
vt 0.75 0.875
vt 0.875 0.875
vn -0.10212742498693722 0.19826689127414618 -0.9748129199441418
vn 0.9836319650466623 0.16636567534280178 -0.06921430059008829
vn 0.10212742498693722 -0.19826689127414618 0.9748129199441418
vn -0.9836319650466623 -0.16636567534280178 0.06921430059008829
vn -0.14845250554968462 0.9659258262890684 0.21201214989665448
vn 0.14845250554968462 -0.9659258262890684 -0.21201214989665448
usemtl m_241610e2-640c-50d1-62ff-e4566c62ad39
f 300/892/223 303/891/223 301/890/223 298/889/223
f 299/896/224 300/895/224 298/894/224 297/893/224
f 304/900/225 299/899/225 297/898/225 302/897/225
f 303/904/226 304/903/226 302/902/226 301/901/226
f 302/908/227 297/907/227 298/906/227 301/905/227
f 303/912/228 300/911/228 299/910/228 304/909/228
o Body
v 0.5378552160949306 3.4790363587957875 -0.1271826516627288
v 0.6763632894005115 3.5437411200714175 -0.32499268047178465
v 0.649194595257194 2.7545919890789863 -0.2861917640852196
v 0.7877026685627749 2.8192967503546162 -0.4840017928942755
v 0.26678726725601576 3.5437411200714175 -0.6117808986473079
v 0.12827919395043486 3.4790363587957875 -0.41397086983825193
v 0.37812664641827914 2.8192967503546162 -0.7707900110697987
v 0.23961857311269824 2.7545919890789863 -0.5729799822607428
vt 0.3125 0.6875
vt 0.4375 0.6875
vt 0.4375 0.5
vt 0.3125 0.5
vt 0.25 0.6875
vt 0.3125 0.6875
vt 0.3125 0.5
vt 0.25 0.5
vt 0.5 0.6875
vt 0.625 0.6875
vt 0.625 0.5
vt 0.5 0.5
vt 0.4375 0.6875
vt 0.5 0.6875
vt 0.5 0.5
vt 0.4375 0.5
vt 0.4375 0.6875
vt 0.3125 0.6875
vt 0.3125 0.75
vt 0.4375 0.75
vt 0.5625 0.75
vt 0.4375 0.75
vt 0.4375 0.6875
vt 0.5625 0.6875
vn 0.5540322932223237 0.25881904510252063 -0.7912401152362236
vn 0.8191520442889915 1.3877787807814457e-17 0.5735764363510464
vn -0.5540322932223237 -0.25881904510252063 0.7912401152362236
vn -0.8191520442889915 -1.3877787807814457e-17 -0.5735764363510464
vn -0.14845250554968456 0.9659258262890684 0.2120121498966545
vn 0.14845250554968456 -0.9659258262890684 -0.2120121498966545
usemtl m_241610e2-640c-50d1-62ff-e4566c62ad39
f 308/916/229 311/915/229 309/914/229 306/913/229
f 307/920/230 308/919/230 306/918/230 305/917/230
f 312/924/231 307/923/231 305/922/231 310/921/231
f 311/928/232 312/927/232 310/926/232 309/925/232
f 310/932/233 305/931/233 306/930/233 309/929/233
f 311/936/234 308/935/234 307/934/234 312/933/234
o Body Layer
v 0.5396781418061334 3.4900849022518274 -0.10254470320204234
v 0.695499724274912 3.562877758686911 -0.32508098561223026
v 0.6556566617668245 2.7354553504634924 -0.26817919530880374
v 0.811478244235603 2.8082482068985763 -0.4907154777189916
v 0.26032520074638527 3.562877758686911 -0.6297934674237237
v 0.10450361827760668 3.4900849022518274 -0.4072571850135358
v 0.3763037207070763 2.8082482068985763 -0.7954279595304851
v 0.22048213823829776 2.7354553504634924 -0.5728916771202971
vt 0.3125 0.4375
vt 0.4375 0.4375
vt 0.4375 0.25
vt 0.3125 0.25
vt 0.25 0.4375
vt 0.3125 0.4375
vt 0.3125 0.25
vt 0.25 0.25
vt 0.5 0.4375
vt 0.625 0.4375
vt 0.625 0.25
vt 0.5 0.25
vt 0.4375 0.4375
vt 0.5 0.4375
vt 0.5 0.25
vt 0.4375 0.25
vt 0.4375 0.4375
vt 0.3125 0.4375
vt 0.3125 0.5
vt 0.4375 0.5
vt 0.5625 0.5
vt 0.4375 0.5
vt 0.4375 0.4375
vt 0.5625 0.4375
vn 0.5540322932223237 0.25881904510252063 -0.7912401152362236
vn 0.8191520442889915 1.3877787807814457e-17 0.5735764363510464
vn -0.5540322932223237 -0.25881904510252063 0.7912401152362236
vn -0.8191520442889915 -1.3877787807814457e-17 -0.5735764363510464
vn -0.14845250554968456 0.9659258262890684 0.2120121498966545
vn 0.14845250554968456 -0.9659258262890684 -0.2120121498966545
usemtl m_241610e2-640c-50d1-62ff-e4566c62ad39
f 316/940/235 319/939/235 317/938/235 314/937/235
f 315/944/236 316/943/236 314/942/236 313/941/236
f 320/948/237 315/947/237 313/946/237 318/945/237
f 319/952/238 320/951/238 318/950/238 317/949/238
f 318/956/239 313/955/239 314/954/239 317/953/239
f 319/960/240 316/959/240 315/958/240 320/957/240
o Right Arm
v 0.7305992971724145 3.3599510601552254 0.03341197204039692
v 0.812846779256706 3.5647390712274736 -0.08404960555784169
v 1.0829840299671303 2.929768732891941 -0.46984558170672885
v 1.1652315120514218 3.134556743964189 -0.5873071593049675
v 0.608058768184458 3.5647390712274736 -0.22744371464560342
v 0.5258112861001666 3.3599510601552254 -0.10998213704736481
v 0.960443500979174 3.134556743964189 -0.730701268392729
v 0.8781960188948825 2.929768732891941 -0.6132396907944904
vt 0.6875 0.6875
vt 0.75 0.6875
vt 0.75 0.5
vt 0.6875 0.5
vt 0.625 0.6875
vt 0.6875 0.6875
vt 0.6875 0.5
vt 0.625 0.5
vt 0.8125 0.6875
vt 0.875 0.6875
vt 0.875 0.5
vt 0.8125 0.5
vt 0.75 0.6875
vt 0.8125 0.6875
vt 0.8125 0.5
vt 0.75 0.5
vt 0.75 0.6875
vt 0.6875 0.6875
vt 0.6875 0.75
vt 0.75 0.75
vt 0.8125 0.75
vt 0.75 0.75
vt 0.75 0.6875
vt 0.8125 0.6875
vn 0.3289899283371659 0.8191520442889917 -0.46984631039295416
vn 0.8191520442889915 0 0.5735764363510465
vn -0.3289899283371659 -0.8191520442889917 0.46984631039295416
vn -0.8191520442889915 0 -0.5735764363510465
vn -0.46984631039295444 0.5735764363510463 0.6710100716628341
vn 0.46984631039295444 -0.5735764363510463 -0.6710100716628341
usemtl m_241610e2-640c-50d1-62ff-e4566c62ad39
f 324/964/241 327/963/241 325/962/241 322/961/241
f 323/968/242 324/967/242 322/966/242 321/965/242
f 328/972/243 323/971/243 321/970/243 326/969/243
f 327/976/244 328/975/244 326/974/244 325/973/244
f 326/980/245 321/979/245 322/978/245 325/977/245
f 327/984/246 324/983/246 323/982/246 328/981/246
o Right Arm Layer
v 0.7309167316342718 3.3561139412811953 0.060199984828003705
v 0.8234451489790998 3.5865004537374743 -0.07194428997001467
v 1.0979841616287676 2.9080073503819404 -0.46402663365858565
v 1.1905125789735955 3.1383938628382193 -0.596170908456604
v 0.593058636522821 3.5865004537374743 -0.23326266269374663
v 0.500530219177993 3.3561139412811953 -0.10111838789572825
v 0.9601260665173167 3.1383938628382193 -0.7574892811803358
v 0.8675976491724887 2.9080073503819404 -0.6253450063823174
vt 0.6875 0.4375
vt 0.75 0.4375
vt 0.75 0.25
vt 0.6875 0.25
vt 0.625 0.4375
vt 0.6875 0.4375
vt 0.6875 0.25
vt 0.625 0.25
vt 0.8125 0.4375
vt 0.875 0.4375
vt 0.875 0.25
vt 0.8125 0.25
vt 0.75 0.4375
vt 0.8125 0.4375
vt 0.8125 0.25
vt 0.75 0.25
vt 0.75 0.4375
vt 0.6875 0.4375
vt 0.6875 0.5
vt 0.75 0.5
vt 0.8125 0.5
vt 0.75 0.5
vt 0.75 0.4375
vt 0.8125 0.4375
vn 0.3289899283371659 0.8191520442889917 -0.46984631039295416
vn 0.8191520442889915 0 0.5735764363510465
vn -0.3289899283371659 -0.8191520442889917 0.46984631039295416
vn -0.8191520442889915 0 -0.5735764363510465
vn -0.46984631039295444 0.5735764363510463 0.6710100716628341
vn 0.46984631039295444 -0.5735764363510463 -0.6710100716628341
usemtl m_241610e2-640c-50d1-62ff-e4566c62ad39
f 332/988/247 335/987/247 333/986/247 330/985/247
f 331/992/248 332/991/248 330/990/248 329/989/248
f 336/996/249 331/995/249 329/994/249 334/993/249
f 335/1000/250 336/999/250 334/998/250 333/997/250
f 334/1004/251 329/1003/251 330/1002/251 333/1001/251
f 335/1008/252 332/1007/252 331/1006/252 336/1005/252
o Left Arm
v 0.11619056709370312 3.34989916309435 -0.3988063316633451
v 0.1575016096049393 3.567788033421444 -0.5142092690359173
v 0.5746931106447049 3.0065504457155825 -0.8829417216438926
v 0.6160041531559408 3.224439316042676 -0.9983446590164651
v -0.03597994204418509 3.5239048298989095 -0.6663248619909031
v -0.07729098455542127 3.3060159595718157 -0.5509219246183309
v 0.4225226015068163 3.1805561125201414 -1.1504602519714509
v 0.38121155899558035 2.9626672421930476 -1.0350573145988786
vt 0.5625 0.1875
vt 0.625 0.1875
vt 0.625 0
vt 0.5625 0
vt 0.5 0.1875
vt 0.5625 0.1875
vt 0.5625 0
vt 0.5 0
vt 0.6875 0.1875
vt 0.75 0.1875
vt 0.75 0
vt 0.6875 0
vt 0.625 0.1875
vt 0.6875 0.1875
vt 0.6875 0
vt 0.625 0
vt 0.625 0.1875
vt 0.5625 0.1875
vt 0.5625 0.25
vt 0.625 0.25
vt 0.6875 0.25
vt 0.625 0.25
vt 0.625 0.1875
vt 0.6875 0.1875
vn 0.16524417004494407 0.8715554813083743 -0.46161174949028927
vn 0.7739262065964982 0.17553281409013916 0.6084623718199434
vn -0.16524417004494407 -0.8715554813083743 0.46161174949028927
vn -0.7739262065964982 -0.17553281409013916 -0.6084623718199434
vn -0.6113367247346685 0.4577982898383574 0.6455138533073969
vn 0.6113367247346685 -0.4577982898383574 -0.6455138533073969
usemtl m_241610e2-640c-50d1-62ff-e4566c62ad39
f 340/1012/253 343/1011/253 341/1010/253 338/1009/253
f 339/1016/254 340/1015/254 338/1014/254 337/1013/254
f 344/1020/255 339/1019/255 337/1018/255 342/1017/255
f 343/1024/256 344/1023/256 342/1022/256 341/1021/256
f 342/1028/257 337/1027/257 338/1026/257 341/1025/257
f 343/1032/258 340/1031/258 339/1030/258 344/1029/258
o Left Arm Layer
v 0.11614908759084197 3.3461769071977896 -0.3720002695599447
v 0.16262401041598262 3.5913018863157697 -0.5018285741040884
v 0.5937559037898019 2.988521993261573 -0.8763079674563483
v 0.6402308266149426 3.2336469723795536 -1.0061362720004923
v -0.05504273518928238 3.541933282352918 -0.6729586161784475
v -0.10151765801442303 3.296808303234938 -0.5431303116343036
v 0.42256408100967746 3.1842783684167015 -1.1772663140748514
v 0.3760891581845368 2.9391533892987214 -1.0474380095307074
vt 0.8125 0.1875
vt 0.875 0.1875
vt 0.875 0
vt 0.8125 0
vt 0.75 0.1875
vt 0.8125 0.1875
vt 0.8125 0
vt 0.75 0
vt 0.9375 0.1875
vt 1 0.1875
vt 1 0
vt 0.9375 0
vt 0.875 0.1875
vt 0.9375 0.1875
vt 0.9375 0
vt 0.875 0
vt 0.875 0.1875
vt 0.8125 0.1875
vt 0.8125 0.25
vt 0.875 0.25
vt 0.9375 0.25
vt 0.875 0.25
vt 0.875 0.1875
vt 0.9375 0.1875
vn 0.16524417004494407 0.8715554813083743 -0.46161174949028927
vn 0.7739262065964982 0.17553281409013916 0.6084623718199434
vn -0.16524417004494407 -0.8715554813083743 0.46161174949028927
vn -0.7739262065964982 -0.17553281409013916 -0.6084623718199434
vn -0.6113367247346685 0.4577982898383574 0.6455138533073969
vn 0.6113367247346685 -0.4577982898383574 -0.6455138533073969
usemtl m_241610e2-640c-50d1-62ff-e4566c62ad39
f 348/1036/259 351/1035/259 349/1034/259 346/1033/259
f 347/1040/260 348/1039/260 346/1038/260 345/1037/260
f 352/1044/261 347/1043/261 345/1042/261 350/1041/261
f 351/1048/262 352/1047/262 350/1046/262 349/1045/262
f 350/1052/263 345/1051/263 346/1050/263 349/1049/263
f 351/1056/264 348/1055/264 347/1054/264 352/1053/264
o Right Leg
v 0.7194891923395478 2.6623020779776043 -0.3976868171449115
v 0.7007725052935356 2.9101632933210566 -0.37095661784733314
v 1.1723834974528442 2.760103548133075 -0.9874508554105323
v 1.153666810406832 3.007964763476527 -0.9607206561129542
v 0.5023806598545608 2.9115866614559986 -0.5230705543767331
v 0.5210973469005729 2.6637254461125464 -0.5498007536743115
v 0.9552749649678571 3.0093881316114697 -1.1128345926423542
v 0.9739916520138693 2.761526916268017 -1.1395647919399323
vt 0.0625 0.6875
vt 0.125 0.6875
vt 0.125 0.5
vt 0.0625 0.5
vt 0 0.6875
vt 0.0625 0.6875
vt 0.0625 0.5
vt 0 0.5
vt 0.1875 0.6875
vt 0.25 0.6875
vt 0.25 0.5
vt 0.1875 0.5
vt 0.125 0.6875
vt 0.1875 0.6875
vt 0.1875 0.5
vt 0.125 0.5
vt 0.125 0.6875
vt 0.0625 0.6875
vt 0.0625 0.75
vt 0.125 0.75
vt 0.1875 0.75
vt 0.125 0.75
vt 0.125 0.6875
vt 0.1875 0.6875
vn -0.07486674818404883 0.9914448613738105 0.10692079719031305
vn 0.7935673817558998 -0.0056934725397687165 0.6084557461175998
vn 0.07486674818404883 -0.9914448613738105 -0.10692079719031305
vn -0.7935673817558998 0.0056934725397687165 -0.6084557461175998
vn -0.6038590734843954 -0.13040196020729414 0.786352051020828
vn 0.6038590734843954 0.13040196020729414 -0.786352051020828
usemtl m_241610e2-640c-50d1-62ff-e4566c62ad39
f 356/1060/265 359/1059/265 357/1058/265 354/1057/265
f 355/1064/266 356/1063/266 354/1062/266 353/1061/266
f 360/1068/267 355/1067/267 353/1066/267 358/1065/267
f 359/1072/268 360/1071/268 358/1070/268 357/1069/268
f 358/1076/269 353/1075/269 354/1074/269 357/1073/269
f 359/1080/270 356/1079/270 355/1078/270 360/1077/270
o Right Leg Layer
v 0.7236231775966657 2.6446842608819656 -0.3775635827707222
v 0.7025669046699021 2.9235281281433494 -0.3474921085609466
v 1.1953880787563496 2.746560792293914 -0.9919011226307439
v 1.174331805829586 3.0254046595552984 -0.9618296484209684
v 0.4793760785510553 2.9251294172951594 -0.5186202871565215
v 0.5004323514778191 2.646285550033775 -0.5486917613662972
v 0.9511409797107391 3.027005948707108 -1.1329578270165435
v 0.9721972526375029 2.748162081445724 -1.1630293012263189
vt 0.0625 0.4375
vt 0.125 0.4375
vt 0.125 0.25
vt 0.0625 0.25
vt 0 0.4375
vt 0.0625 0.4375
vt 0.0625 0.25
vt 0 0.25
vt 0.1875 0.4375
vt 0.25 0.4375
vt 0.25 0.25
vt 0.1875 0.25
vt 0.125 0.4375
vt 0.1875 0.4375
vt 0.1875 0.25
vt 0.125 0.25
vt 0.125 0.4375
vt 0.0625 0.4375
vt 0.0625 0.5
vt 0.125 0.5
vt 0.1875 0.5
vt 0.125 0.5
vt 0.125 0.4375
vt 0.1875 0.4375
vn -0.07486674818404883 0.9914448613738105 0.10692079719031305
vn 0.7935673817558998 -0.0056934725397687165 0.6084557461175998
vn 0.07486674818404883 -0.9914448613738105 -0.10692079719031305
vn -0.7935673817558998 0.0056934725397687165 -0.6084557461175998
vn -0.6038590734843954 -0.13040196020729414 0.786352051020828
vn 0.6038590734843954 0.13040196020729414 -0.786352051020828
usemtl m_241610e2-640c-50d1-62ff-e4566c62ad39
f 364/1084/271 367/1083/271 365/1082/271 362/1081/271
f 363/1088/272 364/1087/272 362/1086/272 361/1085/272
f 368/1092/273 363/1091/273 361/1090/273 366/1089/273
f 367/1096/274 368/1095/274 366/1094/274 365/1093/274
f 366/1100/275 361/1099/275 362/1098/275 365/1097/275
f 367/1104/276 364/1103/276 363/1102/276 368/1101/276
o Left Leg
v 0.535876222751611 2.6643118369430003 -0.5526323719878969
v 0.5233786026684284 2.9133605114659367 -0.5347839207770797
v 0.8512278147340155 2.7286855753260735 -1.2300608886896598
v 0.838730194650833 2.97773424984901 -1.2122124374788426
v 0.2968964084052269 2.909576902490602 -0.640573806800495
v 0.30939402848840947 2.660528227967666 -0.6584222580113123
v 0.6122480003876316 2.9739506408736753 -1.3180023235022578
v 0.6247456204708141 2.724901966350739 -1.3358507747130752
vt 0.3125 0.1875
vt 0.375 0.1875
vt 0.375 0
vt 0.3125 0
vt 0.25 0.1875
vt 0.3125 0.1875
vt 0.3125 0
vt 0.25 0
vt 0.4375 0.1875
vt 0.5 0.1875
vt 0.5 0
vt 0.4375 0
vt 0.375 0.1875
vt 0.4375 0.1875
vt 0.4375 0
vt 0.375 0
vt 0.375 0.1875
vt 0.3125 0.1875
vt 0.3125 0.25
vt 0.375 0.25
vt 0.4375 0.25
vt 0.375 0.25
vt 0.375 0.1875
vt 0.4375 0.1875
vn -0.049990480332730035 0.9961946980917457 0.07139380484326915
vn 0.9059287770528061 0.01513443590133854 0.42315954409366174
vn 0.049990480332730035 -0.9961946980917457 -0.07139380484326915
vn -0.9059287770528061 -0.01513443590133854 -0.42315954409366174
vn -0.4204687893098728 -0.0858316511774308 0.9032380222690172
vn 0.4204687893098728 0.0858316511774308 -0.9032380222690172
usemtl m_241610e2-640c-50d1-62ff-e4566c62ad39
f 372/1108/277 375/1107/277 373/1106/277 370/1105/277
f 371/1112/278 372/1111/278 370/1110/278 369/1109/278
f 376/1116/279 371/1115/279 369/1114/279 374/1113/279
f 375/1120/280 376/1119/280 374/1118/280 373/1117/280
f 374/1124/281 369/1123/281 370/1122/281 373/1121/281
f 375/1128/282 372/1127/282 371/1126/282 376/1125/282
o Left Leg Layer
v 0.5442426363152931 2.647641650796628 -0.5330229382141561
v 0.5301828137217128 2.9278214096349315 -0.5129434306019868
v 0.8727338779636313 2.7146976282789956 -1.2386776431118258
v 0.8586740553700509 2.994877387117299 -1.2185981354996562
v 0.2753903451756111 2.92356484953768 -0.6319570523783291
v 0.2894501677691915 2.6433850906993763 -0.6520365599904985
v 0.6038815868239493 2.990620827020048 -1.3376117572759987
v 0.6179414094175296 2.710441068181744 -1.357691264888168
vt 0.0625 0.1875
vt 0.125 0.1875
vt 0.125 0
vt 0.0625 0
vt 0 0.1875
vt 0.0625 0.1875
vt 0.0625 0
vt 0 0
vt 0.1875 0.1875
vt 0.25 0.1875
vt 0.25 0
vt 0.1875 0
vt 0.125 0.1875
vt 0.1875 0.1875
vt 0.1875 0
vt 0.125 0
vt 0.125 0.1875
vt 0.0625 0.1875
vt 0.0625 0.25
vt 0.125 0.25
vt 0.1875 0.25
vt 0.125 0.25
vt 0.125 0.1875
vt 0.1875 0.1875
vn -0.049990480332730035 0.9961946980917457 0.07139380484326915
vn 0.9059287770528061 0.01513443590133854 0.42315954409366174
vn 0.049990480332730035 -0.9961946980917457 -0.07139380484326915
vn -0.9059287770528061 -0.01513443590133854 -0.42315954409366174
vn -0.4204687893098728 -0.0858316511774308 0.9032380222690172
vn 0.4204687893098728 0.0858316511774308 -0.9032380222690172
usemtl m_241610e2-640c-50d1-62ff-e4566c62ad39
f 380/1132/283 383/1131/283 381/1130/283 378/1129/283
f 379/1136/284 380/1135/284 378/1134/284 377/1133/284
f 384/1140/285 379/1139/285 377/1138/285 382/1137/285
f 383/1144/286 384/1143/286 382/1142/286 381/1141/286
f 382/1148/287 377/1147/287 378/1146/287 381/1145/287
f 383/1152/288 380/1151/288 379/1150/288 384/1149/288
o Head
v 0.6280827730522163 0.6726676744201721 -3.2169355163479145
v 0.5859897816375318 0.5432581518689144 -3.6980606097974444
v 0.6393615561087914 0.1897047612756373 -3.088018436099768
v 0.5972685646941069 0.060295238724379585 -3.5691435295492973
v 0.08789243259165896 0.5432581518689139 -3.6544827384236154
v 0.12998542400634355 0.6726676744201716 -3.1733576449740855
v 0.09917121564823411 0.06029523872437914 -3.525565658175468
v 0.1412642070629187 0.18970476127563685 -3.0444405647259387
vt 0.125 0.875
vt 0.25 0.875
vt 0.25 0.75
vt 0.125 0.75
vt 0 0.875
vt 0.125 0.875
vt 0.125 0.75
vt 0 0.75
vt 0.375 0.875
vt 0.5 0.875
vt 0.5 0.75
vt 0.375 0.75
vt 0.25 0.875
vt 0.375 0.875
vt 0.375 0.75
vt 0.25 0.75
vt 0.25 0.875
vt 0.125 0.875
vt 0.125 1
vt 0.25 1
vt 0.375 1
vt 0.25 1
vt 0.25 0.875
vt 0.375 0.875
vn -0.08418598282936908 -0.2588190451025154 -0.9622501868990598
vn 0.9961946980917455 9.298117831235688e-16 -0.08715574274765818
vn 0.08418598282936908 0.2588190451025154 0.9622501868990598
vn -0.9961946980917455 -9.298117831235688e-16 0.08715574274765818
vn -0.02255756611315025 0.9659258262890699 -0.2578341604962941
vn 0.02255756611315025 -0.9659258262890699 0.2578341604962941
usemtl m_220b5ebb-e4ef-4221-4137-ce5fa785751f
f 388/1156/289 391/1155/289 389/1154/289 386/1153/289
f 387/1160/290 388/1159/290 386/1158/290 385/1157/290
f 392/1164/291 387/1163/291 385/1162/291 390/1161/291
f 391/1168/292 392/1167/292 390/1166/292 389/1165/292
f 390/1172/293 385/1171/293 386/1170/293 389/1169/293
f 391/1176/294 388/1175/294 387/1174/294 392/1173/294
o Hat Layer
v 0.6611397453899652 0.7109409516511591 -3.1976461324836927
v 0.6137851300484451 0.5653552387809944 -3.7389118626144136
v 0.6738283763286121 0.16760767436355728 -3.052614417204527
v 0.6264737609870921 0.022021961493392528 -3.5938801473352484
v 0.05342561237183824 0.5653552387809939 -3.689886757318856
v 0.10078022771335832 0.7109409516511587 -3.1486210271881347
v 0.06611424331048527 0.022021961493392084 -3.5448550420396905
v 0.11346885865200534 0.16760767436355684 -3.0035893119089696
vt 0.625 0.875
vt 0.75 0.875
vt 0.75 0.75
vt 0.625 0.75
vt 0.5 0.875
vt 0.625 0.875
vt 0.625 0.75
vt 0.5 0.75
vt 0.875 0.875
vt 1 0.875
vt 1 0.75
vt 0.875 0.75
vt 0.75 0.875
vt 0.875 0.875
vt 0.875 0.75
vt 0.75 0.75
vt 0.75 0.875
vt 0.625 0.875
vt 0.625 1
vt 0.75 1
vt 0.875 1
vt 0.75 1
vt 0.75 0.875
vt 0.875 0.875
vn -0.08418598282936908 -0.2588190451025154 -0.9622501868990598
vn 0.9961946980917455 9.298117831235688e-16 -0.08715574274765818
vn 0.08418598282936908 0.2588190451025154 0.9622501868990598
vn -0.9961946980917455 -9.298117831235688e-16 0.08715574274765818
vn -0.02255756611315025 0.9659258262890699 -0.2578341604962941
vn 0.02255756611315025 -0.9659258262890699 0.2578341604962941
usemtl m_220b5ebb-e4ef-4221-4137-ce5fa785751f
f 396/1180/295 399/1179/295 397/1178/295 394/1177/295
f 395/1184/296 396/1183/296 394/1182/296 393/1181/296
f 400/1188/297 395/1187/297 393/1186/297 398/1185/297
f 399/1192/298 400/1191/298 398/1190/298 397/1189/298
f 398/1196/299 393/1195/299 394/1194/299 397/1193/299
f 399/1200/300 396/1199/300 395/1198/300 400/1197/300
o Body
v 0.6183150604014491 0.25000000000000855 -3.3285809828245316
v 0.6183150604014491 8.576472865229334e-15 -3.3285809828245334
v 0.6836818674621927 0.2500000000000044 -2.5814349592557226
v 0.6836818674621928 4.413136522884997e-15 -2.581434959255724
v 0.1202177113555764 8.104628079763643e-15 -3.2850031114507043
v 0.1202177113555763 0.2500000000000081 -3.2850031114507026
v 0.18558451841632 3.941291737419306e-15 -2.537857087881895
v 0.1855845184163199 0.2500000000000039 -2.5378570878818936
vt 0.3125 0.6875
vt 0.4375 0.6875
vt 0.4375 0.5
vt 0.3125 0.5
vt 0.25 0.6875
vt 0.3125 0.6875
vt 0.3125 0.5
vt 0.25 0.5
vt 0.5 0.6875
vt 0.625 0.6875
vt 0.625 0.5
vt 0.5 0.5
vt 0.4375 0.6875
vt 0.5 0.6875
vt 0.5 0.5
vt 0.4375 0.5
vt 0.4375 0.6875
vt 0.3125 0.6875
vt 0.3125 0.75
vt 0.4375 0.75
vt 0.5625 0.75
vt 0.4375 0.75
vt 0.4375 0.6875
vt 0.5625 0.6875
vn 4.35549517619452e-16 -1 -5.610425126276431e-15
vn 0.9961946980917455 9.262108779661706e-16 -0.08715574274765817
vn -4.35549517619452e-16 1 5.610425126276431e-15
vn -0.9961946980917455 -9.262108779661706e-16 0.08715574274765817
vn -0.08715574274765817 5.491286529224111e-15 -0.9961946980917457
vn 0.08715574274765817 -5.491286529224111e-15 0.9961946980917457
usemtl m_220b5ebb-e4ef-4221-4137-ce5fa785751f
f 404/1204/301 407/1203/301 405/1202/301 402/1201/301
f 403/1208/302 404/1207/302 402/1206/302 401/1205/302
f 408/1212/303 403/1211/303 401/1210/303 406/1209/303
f 407/1216/304 408/1215/304 406/1214/304 405/1213/304
f 406/1220/305 401/1219/305 402/1218/305 405/1217/305
f 407/1224/306 404/1223/306 403/1222/306 408/1221/306
o Body Layer
v 0.6325187940787005 0.26562500000000866 -3.3455083334626474
v 0.6325187940787005 -0.015624999999991313 -3.345508333462649
v 0.7006092181003084 0.26562500000000433 -2.567231225578471
v 0.7006092181003085 -0.015624999999995642 -2.567231225578473
v 0.10329036071746073 -0.015624999999991812 -3.299206845127956
v 0.10329036071746062 0.2656250000000081 -3.299206845127954
v 0.1713807847390687 -0.015624999999996142 -2.5209297372437796
v 0.1713807847390686 0.2656250000000038 -2.520929737243778
vt 0.3125 0.4375
vt 0.4375 0.4375
vt 0.4375 0.25
vt 0.3125 0.25
vt 0.25 0.4375
vt 0.3125 0.4375
vt 0.3125 0.25
vt 0.25 0.25
vt 0.5 0.4375
vt 0.625 0.4375
vt 0.625 0.25
vt 0.5 0.25
vt 0.4375 0.4375
vt 0.5 0.4375
vt 0.5 0.25
vt 0.4375 0.25
vt 0.4375 0.4375
vt 0.3125 0.4375
vt 0.3125 0.5
vt 0.4375 0.5
vt 0.5625 0.5
vt 0.4375 0.5
vt 0.4375 0.4375
vt 0.5625 0.4375
vn 4.35549517619452e-16 -1 -5.610425126276431e-15
vn 0.9961946980917455 9.262108779661706e-16 -0.08715574274765817
vn -4.35549517619452e-16 1 5.610425126276431e-15
vn -0.9961946980917455 -9.262108779661706e-16 0.08715574274765817
vn -0.08715574274765817 5.491286529224111e-15 -0.9961946980917457
vn 0.08715574274765817 -5.491286529224111e-15 0.9961946980917457
usemtl m_220b5ebb-e4ef-4221-4137-ce5fa785751f
f 412/1228/307 415/1227/307 413/1226/307 410/1225/307
f 411/1232/308 412/1231/308 410/1230/308 409/1229/308
f 416/1236/309 411/1235/309 409/1234/309 414/1233/309
f 415/1240/310 416/1239/310 414/1238/310 413/1237/310
f 414/1244/311 409/1243/311 410/1242/311 413/1241/311
f 415/1248/312 412/1247/312 411/1246/312 416/1245/312
o Right Arm
v 0.8366237683692793 -0.036947631126510866 -3.071264627050419
v 0.8944632638772849 0.20626236682208773 -3.0731326894749866
v 0.8843284222489836 -0.0540400957775779 -3.819550744555194
v 0.9421679177569892 0.1891699021710207 -3.8214188069797617
v 0.6517664706849395 0.26385086850306194 -3.089920513881157
v 0.5939269751769339 0.020640870554463342 -3.0880524514565892
v 0.6994711245646439 0.24675840385199493 -3.838206631385932
v 0.6416316290566382 0.0035484059033963344 -3.8363385689613643
vt 0.6875 0.6875
vt 0.75 0.6875
vt 0.75 0.5
vt 0.6875 0.5
vt 0.625 0.6875
vt 0.6875 0.6875
vt 0.6875 0.5
vt 0.625 0.5
vt 0.8125 0.6875
vt 0.875 0.6875
vt 0.875 0.5
vt 0.8125 0.5
vt 0.75 0.6875
vt 0.8125 0.6875
vt 0.8125 0.5
vt 0.75 0.5
vt 0.75 0.6875
vt 0.6875 0.6875
vt 0.6875 0.75
vt 0.75 0.75
vt 0.8125 0.75
vt 0.75 0.75
vt 0.75 0.6875
vt 0.8125 0.6875
vn 0.23135798203202226 0.9728399917943943 -0.007472249698271162
vn 0.9707871727693813 -0.23035400672389691 0.0671512976246806
vn -0.23135798203202226 -0.9728399917943943 0.007472249698271162
vn -0.9707871727693813 0.23035400672389691 -0.0671512976246806
vn -0.063606205172939 0.022789952868089415 0.9977148233396997
vn 0.063606205172939 -0.022789952868089415 -0.9977148233396997
usemtl m_220b5ebb-e4ef-4221-4137-ce5fa785751f
f 420/1252/313 423/1251/313 421/1250/313 418/1249/313
f 419/1256/314 420/1255/314 418/1254/314 417/1253/314
f 424/1260/315 419/1259/315 417/1258/315 422/1257/315
f 423/1264/316 424/1263/316 422/1262/316 421/1261/316
f 422/1268/317 417/1267/317 418/1266/317 421/1265/317
f 423/1272/318 420/1271/318 419/1270/318 424/1269/318
o Right Arm Layer
v 0.8471835025187233 -0.05539144433979529 -3.0545093400088152
v 0.9122529349652297 0.21821980335237814 -3.056610910236454
v 0.896875850310082 -0.0731960950179901 -3.8339740457429556
v 0.9619452827565883 0.20041515267418333 -3.836075615970594
v 0.6392190426238411 0.28300686774347417 -3.0754972126933953
v 0.5741496101773349 0.009395620051300735 -3.0733956424657567
v 0.6889113904151998 0.26520221706527936 -3.8549619184275357
v 0.6238419579686935 -0.008409030626894076 -3.852860348199897
vt 0.6875 0.4375
vt 0.75 0.4375
vt 0.75 0.25
vt 0.6875 0.25
vt 0.625 0.4375
vt 0.6875 0.4375
vt 0.6875 0.25
vt 0.625 0.25
vt 0.8125 0.4375
vt 0.875 0.4375
vt 0.875 0.25
vt 0.8125 0.25
vt 0.75 0.4375
vt 0.8125 0.4375
vt 0.8125 0.25
vt 0.75 0.25
vt 0.75 0.4375
vt 0.6875 0.4375
vt 0.6875 0.5
vt 0.75 0.5
vt 0.8125 0.5
vt 0.75 0.5
vt 0.75 0.4375
vt 0.8125 0.4375
vn 0.23135798203202226 0.9728399917943943 -0.007472249698271162
vn 0.9707871727693813 -0.23035400672389691 0.0671512976246806
vn -0.23135798203202226 -0.9728399917943943 0.007472249698271162
vn -0.9707871727693813 0.23035400672389691 -0.0671512976246806
vn -0.063606205172939 0.022789952868089415 0.9977148233396997
vn 0.063606205172939 -0.022789952868089415 -0.9977148233396997
usemtl m_220b5ebb-e4ef-4221-4137-ce5fa785751f
f 428/1276/319 431/1275/319 429/1274/319 426/1273/319
f 427/1280/320 428/1279/320 426/1278/320 425/1277/320
f 432/1284/321 427/1283/321 425/1282/321 430/1281/321
f 431/1288/322 432/1287/322 430/1286/322 429/1285/322
f 430/1292/323 425/1291/323 426/1290/323 429/1289/323
f 431/1296/324 428/1295/324 427/1294/324 432/1293/324
o Left Arm
v 0.15210651733992886 0.250000000000008 -3.2672794982898488
v 0.15210651733992897 8.03523914072457e-15 -3.2672794982898505
v 0.021870384089731076 0.25000000000000383 -2.528673683530693
v 0.021870384089731187 3.8441472227646045e-15 -2.5286736835306947
v -0.09409542091312306 8.174017018802715e-15 -3.310691542706583
v -0.09409542091312317 0.25000000000000816 -3.3106915427065817
v -0.22433155416332085 3.969047313034935e-15 -2.572085727947427
v -0.22433155416332096 0.25000000000000394 -2.5720857279474254
vt 0.5625 0.1875
vt 0.625 0.1875
vt 0.625 0
vt 0.5625 0
vt 0.5 0.1875
vt 0.5625 0.1875
vt 0.5625 0
vt 0.5 0
vt 0.6875 0.1875
vt 0.75 0.1875
vt 0.75 0
vt 0.6875 0
vt 0.625 0.1875
vt 0.6875 0.1875
vt 0.6875 0
vt 0.625 0
vt 0.625 0.1875
vt 0.5625 0.1875
vt 0.5625 0.25
vt 0.625 0.25
vt 0.6875 0.25
vt 0.625 0.25
vt 0.625 0.1875
vt 0.6875 0.1875
vn 4.355495176194518e-16 -1 -5.610425126276429e-15
vn 0.9848077530122081 -5.265985282607229e-16 0.17364817766693036
vn -4.355495176194518e-16 1 5.610425126276429e-15
vn -0.9848077530122081 5.265985282607229e-16 -0.17364817766693036
vn 0.17364817766693028 5.5438964931296e-15 -0.984807753012208
vn -0.17364817766693028 -5.5438964931296e-15 0.984807753012208
usemtl m_220b5ebb-e4ef-4221-4137-ce5fa785751f
f 436/1300/325 439/1299/325 437/1298/325 434/1297/325
f 435/1304/326 436/1303/326 434/1302/326 433/1301/326
f 440/1308/327 435/1307/327 433/1306/327 438/1305/327
f 439/1312/328 440/1311/328 438/1310/328 437/1309/328
f 438/1316/329 433/1315/329 434/1314/329 437/1313/329
f 439/1320/330 436/1319/330 435/1318/330 440/1317/330
o Left Arm Layer
v 0.1702073912567904 0.26562500000000805 -3.279953866654619
v 0.17020739125679052 -0.015624999999991881 -3.279953866654621
v 0.03454475245450103 0.2656250000000037 -2.5105728096138313
v 0.03454475245450114 -0.015624999999996239 -2.510572809613833
v -0.10676978927789299 -0.015624999999991715 -3.3287924166234446
v -0.1067697892778931 0.2656250000000082 -3.328792416623443
v -0.2424324280801824 -0.0156249999999961 -2.5594113595826573
v -0.2424324280801825 0.26562500000000383 -2.5594113595826555
vt 0.8125 0.1875
vt 0.875 0.1875
vt 0.875 0
vt 0.8125 0
vt 0.75 0.1875
vt 0.8125 0.1875
vt 0.8125 0
vt 0.75 0
vt 0.9375 0.1875
vt 1 0.1875
vt 1 0
vt 0.9375 0
vt 0.875 0.1875
vt 0.9375 0.1875
vt 0.9375 0
vt 0.875 0
vt 0.875 0.1875
vt 0.8125 0.1875
vt 0.8125 0.25
vt 0.875 0.25
vt 0.9375 0.25
vt 0.875 0.25
vt 0.875 0.1875
vt 0.9375 0.1875
vn 4.355495176194518e-16 -1 -5.610425126276429e-15
vn 0.9848077530122081 -5.265985282607229e-16 0.17364817766693036
vn -4.355495176194518e-16 1 5.610425126276429e-15
vn -0.9848077530122081 5.265985282607229e-16 -0.17364817766693036
vn 0.17364817766693028 5.5438964931296e-15 -0.984807753012208
vn -0.17364817766693028 -5.5438964931296e-15 0.984807753012208
usemtl m_220b5ebb-e4ef-4221-4137-ce5fa785751f
f 444/1324/331 447/1323/331 445/1322/331 442/1321/331
f 443/1328/332 444/1327/332 442/1326/332 441/1325/332
f 448/1332/333 443/1331/333 441/1330/333 446/1329/333
f 447/1336/334 448/1335/334 446/1334/334 445/1333/334
f 446/1340/335 441/1339/335 442/1338/335 445/1337/335
f 447/1344/336 444/1343/336 443/1342/336 448/1341/336
o Right Leg
v 0.6749683142276428 0.25000000000000444 -2.597050719762356
v 0.6749683142276429 4.5102810375396984e-15 -2.597050719762357
v 0.8372980246812199 0.25000000000000044 -1.8648287144224056
v 0.83729802468122 4.718447854656915e-16 -1.8648287144224072
v 0.43089431244765963 4.093947403305265e-15 -2.5429408162778313
v 0.4308943124476595 0.2500000000000041 -2.54294081627783
v 0.5932240229012368 5.551115123125783e-17 -1.8107188109378813
v 0.5932240229012367 0.25 -1.81071881093788
vt 0.0625 0.6875
vt 0.125 0.6875
vt 0.125 0.5
vt 0.0625 0.5
vt 0 0.6875
vt 0.0625 0.6875
vt 0.0625 0.5
vt 0 0.5
vt 0.1875 0.6875
vt 0.25 0.6875
vt 0.25 0.5
vt 0.1875 0.5
vt 0.125 0.6875
vt 0.1875 0.6875
vt 0.1875 0.5
vt 0.125 0.5
vt 0.125 0.6875
vt 0.0625 0.6875
vt 0.0625 0.75
vt 0.125 0.75
vt 0.1875 0.75
vt 0.125 0.75
vt 0.125 0.6875
vt 0.1875 0.6875
vn 4.35549517619452e-16 -1 -5.610425126276431e-15
vn 0.9762960071199334 1.6350437365569714e-15 -0.21643961393810288
vn -4.35549517619452e-16 1 5.610425126276431e-15
vn -0.9762960071199334 -1.6350437365569714e-15 0.21643961393810288
vn -0.21643961393810288 5.323413032636755e-15 -0.9762960071199335
vn 0.21643961393810288 -5.323413032636755e-15 0.9762960071199335
usemtl m_220b5ebb-e4ef-4221-4137-ce5fa785751f
f 452/1348/337 455/1347/337 453/1346/337 450/1345/337
f 451/1352/338 452/1351/338 450/1350/338 449/1349/338
f 456/1356/339 451/1355/339 449/1354/339 454/1353/339
f 455/1360/340 456/1359/340 454/1358/340 453/1357/340
f 454/1364/341 449/1363/341 450/1362/341 453/1361/341
f 455/1368/342 452/1367/342 451/1366/342 456/1365/342
o Right Leg Layer
v 0.686841070371109 0.26562500000000455 -2.6156872138413876
v 0.686841070371109 -0.015624999999995365 -2.615687213841389
v 0.8559345187602518 0.26562500000000033 -1.8529559582789394
v 0.8559345187602518 -0.015624999999999584 -1.852955958278941
v 0.4122578183686278 -0.015624999999995837 -2.5548135724212973
v 0.4122578183686277 0.2656250000000041 -2.554813572421296
v 0.5813512667577706 -0.015625000000000028 -1.7920823168588496
v 0.5813512667577705 0.2656249999999999 -1.792082316858848
vt 0.0625 0.4375
vt 0.125 0.4375
vt 0.125 0.25
vt 0.0625 0.25
vt 0 0.4375
vt 0.0625 0.4375
vt 0.0625 0.25
vt 0 0.25
vt 0.1875 0.4375
vt 0.25 0.4375
vt 0.25 0.25
vt 0.1875 0.25
vt 0.125 0.4375
vt 0.1875 0.4375
vt 0.1875 0.25
vt 0.125 0.25
vt 0.125 0.4375
vt 0.0625 0.4375
vt 0.0625 0.5
vt 0.125 0.5
vt 0.1875 0.5
vt 0.125 0.5
vt 0.125 0.4375
vt 0.1875 0.4375
vn 4.35549517619452e-16 -1 -5.610425126276431e-15
vn 0.9762960071199334 1.6350437365569714e-15 -0.21643961393810288
vn -4.35549517619452e-16 1 5.610425126276431e-15
vn -0.9762960071199334 -1.6350437365569714e-15 0.21643961393810288
vn -0.21643961393810288 5.323413032636755e-15 -0.9762960071199335
vn 0.21643961393810288 -5.323413032636755e-15 0.9762960071199335
usemtl m_220b5ebb-e4ef-4221-4137-ce5fa785751f
f 460/1372/343 463/1371/343 461/1370/343 458/1369/343
f 459/1376/344 460/1375/344 458/1374/344 457/1373/344
f 464/1380/345 459/1379/345 457/1378/345 462/1377/345
f 463/1384/346 464/1383/346 462/1382/346 461/1381/346
f 462/1388/347 457/1387/347 458/1386/347 461/1385/347
f 463/1392/348 460/1391/348 459/1390/348 464/1389/348
o Left Leg
v 0.4394360416673875 0.250000000000004 -2.527590256909158
v 0.4394360416673876 3.9968028886505635e-15 -2.527590256909159
v 0.3091999084171897 0.24999999999999978 -1.7889844421500016
v 0.3091999084171898 -1.942890293094024e-16 -1.788984442150003
v 0.19323410341433558 4.135580766728708e-15 -2.5710023013258914
v 0.19323410341433547 0.2500000000000041 -2.5710023013258905
v 0.0629979701641378 -5.551115123125783e-17 -1.8323964865667357
v 0.06299797016413769 0.2499999999999999 -1.8323964865667342
vt 0.3125 0.1875
vt 0.375 0.1875
vt 0.375 0
vt 0.3125 0
vt 0.25 0.1875
vt 0.3125 0.1875
vt 0.3125 0
vt 0.25 0
vt 0.4375 0.1875
vt 0.5 0.1875
vt 0.5 0
vt 0.4375 0
vt 0.375 0.1875
vt 0.4375 0.1875
vt 0.4375 0
vt 0.375 0
vt 0.375 0.1875
vt 0.3125 0.1875
vt 0.3125 0.25
vt 0.375 0.25
vt 0.4375 0.25
vt 0.375 0.25
vt 0.375 0.1875
vt 0.4375 0.1875
vn 4.355495176194518e-16 -1 -5.610425126276429e-15
vn 0.9848077530122081 -5.265985282607229e-16 0.17364817766693036
vn -4.355495176194518e-16 1 5.610425126276429e-15
vn -0.9848077530122081 5.265985282607229e-16 -0.17364817766693036
vn 0.17364817766693028 5.5438964931296e-15 -0.984807753012208
vn -0.17364817766693028 -5.5438964931296e-15 0.984807753012208
usemtl m_220b5ebb-e4ef-4221-4137-ce5fa785751f
f 468/1396/349 471/1395/349 469/1394/349 466/1393/349
f 467/1400/350 468/1399/350 466/1398/350 465/1397/350
f 472/1404/351 467/1403/351 465/1402/351 470/1401/351
f 471/1408/352 472/1407/352 470/1406/352 469/1405/352
f 470/1412/353 465/1411/353 466/1410/353 469/1409/353
f 471/1416/354 468/1415/354 467/1414/354 472/1413/354
o Left Leg Layer
v 0.457536915584249 0.26562500000000405 -2.5402646252739274
v 0.45753691558424914 -0.015624999999995906 -2.540264625273929
v 0.3218742767819597 0.26562499999999967 -1.77088356823314
v 0.3218742767819598 -0.01562500000000029 -1.7708835682331416
v 0.18055973504956563 -0.01562499999999574 -2.5891031752427534
v 0.18055973504956552 0.2656250000000042 -2.5891031752427516
v 0.04489709624727628 -0.015625000000000125 -1.8197221182019658
v 0.04489709624727617 0.26562499999999983 -1.8197221182019643
vt 0.0625 0.1875
vt 0.125 0.1875
vt 0.125 0
vt 0.0625 0
vt 0 0.1875
vt 0.0625 0.1875
vt 0.0625 0
vt 0 0
vt 0.1875 0.1875
vt 0.25 0.1875
vt 0.25 0
vt 0.1875 0
vt 0.125 0.1875
vt 0.1875 0.1875
vt 0.1875 0
vt 0.125 0
vt 0.125 0.1875
vt 0.0625 0.1875
vt 0.0625 0.25
vt 0.125 0.25
vt 0.1875 0.25
vt 0.125 0.25
vt 0.125 0.1875
vt 0.1875 0.1875
vn 4.355495176194518e-16 -1 -5.610425126276429e-15
vn 0.9848077530122081 -5.265985282607229e-16 0.17364817766693036
vn -4.355495176194518e-16 1 5.610425126276429e-15
vn -0.9848077530122081 5.265985282607229e-16 -0.17364817766693036
vn 0.17364817766693028 5.5438964931296e-15 -0.984807753012208
vn -0.17364817766693028 -5.5438964931296e-15 0.984807753012208
usemtl m_220b5ebb-e4ef-4221-4137-ce5fa785751f
f 476/1420/355 479/1419/355 477/1418/355 474/1417/355
f 475/1424/356 476/1423/356 474/1422/356 473/1421/356
f 480/1428/357 475/1427/357 473/1426/357 478/1425/357
f 479/1432/358 480/1431/358 478/1430/358 477/1429/358
f 478/1436/359 473/1435/359 474/1434/359 477/1433/359
f 479/1440/360 476/1439/360 475/1438/360 480/1437/360