# Made in Blockbench 4.9.4
mtllib smallgrass1.mtl

o cube
v 0.40115917793173206 0.6394245874743554 -0.06653015026578074
v 0.40115917793173206 0.6394245874743554 -0.06653015026578074
v 0.3155431505906382 -0.040978663288672335 -0.017769897872735974
v 0.3155431505906382 -0.040978663288672335 -0.017769897872735974
v -0.018093145278677947 0.7000176568223111 0.042841781369661214
v -0.018093145278677947 0.7000176568223111 0.042841781369661214
v -0.1037091726197718 0.019614406059283218 0.09160203376270593
v -0.1037091726197718 0.019614406059283218 0.09160203376270593
vt 0.5 0.75
vt 1 0.75
vt 1 0
vt 0.5 0
vt 1 0.75
vt 0.5 0.75
vt 0.5 0
vt 1 0
vn -0.2572352870455253 -0.03683360850073511 -0.965646567012704
vn 0.2572352870455253 0.03683360850073511 0.965646567012704
usemtl m_595f01a0-ef98-f389-ab72-5717dc779dec
f 4/4/1 7/3/1 5/2/1 2/1/1
f 8/8/2 3/7/2 1/6/2 6/5/2