# Made in Blockbench 4.9.4
mtllib smallgrass2.mtl

o cube
v 0.008638455524647148 0.7010730395240561 0.02468745306121778
v 0.008638455524647148 0.7010730395240561 0.02468745306121778
v 0.10410188572812862 0.023398018994905567 0.0902584073367223
v 0.10410188572812862 0.023398018994905567 0.0902584073367223
v -0.41052702505213734 0.6319128495354245 -0.07982770379925697
v -0.41052702505213734 0.6319128495354245 -0.07982770379925697
v -0.3150635948486558 -0.04576217099372626 -0.014256749523752554
v -0.3150635948486558 -0.04576217099372626 -0.014256749523752554
vt 1 0.75
vt 0.5 0.75
vt 0.5 0
vt 1 0
vt 0.5 0.75
vt 1 0.75
vt 1 0
vt 0.5 0
vn 0.2505548824152417 -0.05820743539902942 -0.9663509431682427
vn -0.2505548824152417 0.05820743539902942 0.9663509431682427
usemtl m_595f01a0-ef98-f389-ab72-5717dc779dec
f 4/4/1 7/3/1 5/2/1 2/1/1
f 8/8/2 3/7/2 1/6/2 6/5/2