# Made in Blockbench 4.9.4
mtllib tallgrass2.mtl

o cube
v 0.17089414496219235 0.8291556742838346 -0.07715120880816306
v 0.17089414496219235 0.8291556742838346 -0.07715120880816306
v 0.24063236154385514 0.019747482084291335 -0.06485447963832541
v 0.24063236154385514 0.019747482084291335 -0.06485447963832541
v -0.3705286685114818 0.7847238395941791 0.06877137037806913
v -0.3705286685114818 0.7847238395941791 0.06877137037806913
v -0.30079045192981896 -0.024684352605364224 0.08106809954790672
v -0.30079045192981896 -0.024684352605364224 0.08106809954790672
vt 0 1
vt 0.5625 1
vt 0.5625 0.1875
vt 0 0.1875
vt 0.5625 1
vt 0 1
vt 0 0.1875
vt 0.5625 0.1875
vn -0.2572352870455253 -0.036833608500735124 -0.9656465670127041
vn 0.2572352870455253 0.036833608500735124 0.9656465670127041
usemtl m_595f01a0-ef98-f389-ab72-5717dc779dec
f 4/4/1 7/3/1 5/2/1 2/1/1
f 8/8/2 3/7/2 1/6/2 6/5/2