# Made in Blockbench 4.9.4
mtllib tallgrass1.mtl

o cube
v 0.37263885261072915 0.9588133133187975 0.06570628377551657
v 0.37263885261072915 0.9588133133187975 0.06570628377551657
v 0.2440956465412606 -0.03263154805501289 0.04304064835870114
v 0.2440956465412606 -0.03263154805501289 0.04304064835870114
v -0.1765763521071072 1.0322342964425766 -0.031135175031561046
v -0.1765763521071072 1.0322342964425766 -0.031135175031561046
v -0.30511955817657577 0.04078943506876609 -0.053800810448376424
v -0.30511955817657577 0.04078943506876609 -0.053800810448376424
vt 0 1
vt 0.5625 1
vt 0.5625 0
vt 0 0
vt 0.5625 1
vt 0 1
vt 0 0
vt 0.5625 0
vn 0.17364817766693044 -6.93889390390723e-18 -0.9848077530122082
vn -0.17364817766693044 6.93889390390723e-18 0.9848077530122082
usemtl m_595f01a0-ef98-f389-ab72-5717dc779dec
f 4/4/1 7/3/1 5/2/1 2/1/1
f 8/8/2 3/7/2 1/6/2 6/5/2